{
    "asset" : {
        "generator" : "Khronos glTF Blender I/O v1.3.48",
        "version" : "2.0"
    },
    "scene" : 0,
    "scenes" : [
        {
            "name" : "Scene",
            "nodes" : [
                8
            ]
        }
    ],
    "nodes" : [
        {
            "mesh" : 0,
            "name" : "Mesh_0"
        },
        {
            "mesh" : 1,
            "name" : "Mesh_1"
        },
        {
            "mesh" : 2,
            "name" : "Mesh_2"
        },
        {
            "mesh" : 3,
            "name" : "Mesh_3"
        },
        {
            "mesh" : 4,
            "name" : "Mesh_4"
        },
        {
            "mesh" : 5,
            "name" : "Mesh_5"
        },
        {
            "children" : [
                0,
                1,
                2,
                3,
                4,
                5
            ],
            "name" : "rocket.obj.cleaner.materialmerger.gles"
        },
        {
            "children" : [
                6
            ],
            "name" : "RootNode (model correction matrix)"
        },
        {
            "children" : [
                7
            ],
            "name" : "RootNode (gltf orientation matrix)",
            "rotation" : [
                -0.7071068286895752,
                0,
                0,
                0.7071068286895752
            ],
            "scale" : [
                0.5,
                0.5,
                0.5
            ]
        }
    ],
    "materials" : [
        {
            "doubleSided" : true,
            "emissiveFactor" : [
                0,
                0,
                0
            ],
            "name" : "blinn1SG",
            "pbrMetallicRoughness" : {
                "baseColorFactor" : [
                    1,
                    1,
                    1,
                    1
                ],
                "metallicFactor" : 0,
                "roughnessFactor" : 1
            }
        },
        {
            "doubleSided" : true,
            "emissiveFactor" : [
                0,
                0,
                0
            ],
            "name" : "blinn2SG",
            "pbrMetallicRoughness" : {
                "baseColorFactor" : [
                    0.6200000047683716,
                    0,
                    0,
                    1
                ],
                "metallicFactor" : 0,
                "roughnessFactor" : 1
            }
        },
        {
            "doubleSided" : true,
            "emissiveFactor" : [
                0,
                0,
                0
            ],
            "name" : "blinn3SG",
            "pbrMetallicRoughness" : {
                "baseColorFactor" : [
                    0.3799999952316284,
                    0.47999998927116394,
                    0.5,
                    1
                ],
                "metallicFactor" : 0,
                "roughnessFactor" : 1
            }
        },
        {
            "doubleSided" : true,
            "emissiveFactor" : [
                0,
                0,
                0
            ],
            "name" : "blinn5SG",
            "pbrMetallicRoughness" : {
                "baseColorFactor" : [
                    0,
                    0.12999999523162842,
                    0.5799999833106995,
                    1
                ],
                "metallicFactor" : 0,
                "roughnessFactor" : 1
            }
        },
        {
            "alphaMode" : "BLEND",
            "doubleSided" : true,
            "emissiveFactor" : [
                0,
                0,
                0
            ],
            "name" : "phong1SG",
            "pbrMetallicRoughness" : {
                "baseColorFactor" : [
                    0.20999999344348907,
                    0.3799999952316284,
                    0.6600000262260437,
                    0.6480563879013062
                ],
                "metallicFactor" : 0,
                "roughnessFactor" : 0.8157688975334167
            }
        },
        {
            "doubleSided" : true,
            "emissiveFactor" : [
                0,
                0,
                0
            ],
            "name" : "phong2SG",
            "pbrMetallicRoughness" : {
                "baseColorFactor" : [
                    0,
                    0,
                    0,
                    1
                ],
                "metallicFactor" : 0,
                "roughnessFactor" : 0.8970116376876831
            }
        }
    ],
    "meshes" : [
        {
            "name" : "Mesh_0",
            "primitives" : [
                {
                    "attributes" : {
                        "POSITION" : 0,
                        "NORMAL" : 1,
                        "TEXCOORD_0" : 2
                    },
                    "indices" : 3,
                    "material" : 0
                }
            ]
        },
        {
            "name" : "Mesh_1",
            "primitives" : [
                {
                    "attributes" : {
                        "POSITION" : 4,
                        "NORMAL" : 5,
                        "TEXCOORD_0" : 6
                    },
                    "indices" : 7,
                    "material" : 1
                }
            ]
        },
        {
            "name" : "Mesh_2",
            "primitives" : [
                {
                    "attributes" : {
                        "POSITION" : 8,
                        "NORMAL" : 9,
                        "TEXCOORD_0" : 10
                    },
                    "indices" : 11,
                    "material" : 2
                }
            ]
        },
        {
            "name" : "Mesh_3",
            "primitives" : [
                {
                    "attributes" : {
                        "POSITION" : 12,
                        "NORMAL" : 13,
                        "TEXCOORD_0" : 14
                    },
                    "indices" : 15,
                    "material" : 3
                }
            ]
        },
        {
            "name" : "Mesh_4",
            "primitives" : [
                {
                    "attributes" : {
                        "POSITION" : 16,
                        "NORMAL" : 17,
                        "TEXCOORD_0" : 18
                    },
                    "indices" : 19,
                    "material" : 4
                }
            ]
        },
        {
            "name" : "Mesh_5",
            "primitives" : [
                {
                    "attributes" : {
                        "POSITION" : 20,
                        "NORMAL" : 21,
                        "TEXCOORD_0" : 22
                    },
                    "indices" : 23,
                    "material" : 5
                }
            ]
        }
    ],
    "accessors" : [
        {
            "bufferView" : 0,
            "componentType" : 5126,
            "count" : 725,
            "max" : [
                -9.813344955444336,
                -2.9756760597229004,
                14.739509582519531
            ],
            "min" : [
                -13.900835037231445,
                -7.06316614151001,
                3.6930360794067383
            ],
            "type" : "VEC3"
        },
        {
            "bufferView" : 1,
            "componentType" : 5126,
            "count" : 725,
            "type" : "VEC3"
        },
        {
            "bufferView" : 2,
            "componentType" : 5126,
            "count" : 725,
            "type" : "VEC2"
        },
        {
            "bufferView" : 3,
            "componentType" : 5123,
            "count" : 3720,
            "type" : "SCALAR"
        },
        {
            "bufferView" : 4,
            "componentType" : 5126,
            "count" : 1152,
            "max" : [
                -9.94375228881836,
                -3.1060850620269775,
                3.6930360794067383
            ],
            "min" : [
                -13.770425796508789,
                -6.932755947113037,
                1.8500640392303467
            ],
            "type" : "VEC3"
        },
        {
            "bufferView" : 5,
            "componentType" : 5126,
            "count" : 1152,
            "type" : "VEC3"
        },
        {
            "bufferView" : 6,
            "componentType" : 5126,
            "count" : 1152,
            "type" : "VEC2"
        },
        {
            "bufferView" : 7,
            "componentType" : 5123,
            "count" : 3240,
            "type" : "SCALAR"
        },
        {
            "bufferView" : 8,
            "componentType" : 5126,
            "count" : 2368,
            "max" : [
                -9.537924766540527,
                -4.373334884643555,
                10.699341773986816
            ],
            "min" : [
                -14.218405723571777,
                -7.179211139678955,
                5.4104461669921875
            ],
            "type" : "VEC3"
        },
        {
            "bufferView" : 9,
            "componentType" : 5126,
            "count" : 2368,
            "type" : "VEC3"
        },
        {
            "bufferView" : 10,
            "componentType" : 5126,
            "count" : 2368,
            "type" : "VEC2"
        },
        {
            "bufferView" : 11,
            "componentType" : 5123,
            "count" : 3780,
            "type" : "SCALAR"
        },
        {
            "bufferView" : 12,
            "componentType" : 5126,
            "count" : 7177,
            "max" : [
                -7.323028087615967,
                -0.8943390250205994,
                17.366531372070312
            ],
            "min" : [
                -16.83644676208496,
                -10.985450744628906,
                0.13166899979114532
            ],
            "type" : "VEC3"
        },
        {
            "bufferView" : 13,
            "componentType" : 5126,
            "count" : 7177,
            "type" : "VEC3"
        },
        {
            "bufferView" : 14,
            "componentType" : 5126,
            "count" : 7177,
            "type" : "VEC2"
        },
        {
            "bufferView" : 15,
            "componentType" : 5123,
            "count" : 15156,
            "type" : "SCALAR"
        },
        {
            "bufferView" : 16,
            "componentType" : 5126,
            "count" : 3073,
            "max" : [
                -9.178680419921875,
                -4.488471984863281,
                10.632573127746582
            ],
            "min" : [
                -14.57765007019043,
                -7.977261066436768,
                5.531818866729736
            ],
            "type" : "VEC3"
        },
        {
            "bufferView" : 17,
            "componentType" : 5126,
            "count" : 3073,
            "type" : "VEC3"
        },
        {
            "bufferView" : 18,
            "componentType" : 5126,
            "count" : 3073,
            "type" : "VEC2"
        },
        {
            "bufferView" : 19,
            "componentType" : 5123,
            "count" : 15960,
            "type" : "SCALAR"
        },
        {
            "bufferView" : 20,
            "componentType" : 5126,
            "count" : 1762,
            "max" : [
                -11.392213821411133,
                -4.543470859527588,
                17.460277557373047
            ],
            "min" : [
                -12.339604377746582,
                -5.490861892700195,
                15.802328109741211
            ],
            "type" : "VEC3"
        },
        {
            "bufferView" : 21,
            "componentType" : 5126,
            "count" : 1762,
            "type" : "VEC3"
        },
        {
            "bufferView" : 22,
            "componentType" : 5126,
            "count" : 1762,
            "type" : "VEC2"
        },
        {
            "bufferView" : 23,
            "componentType" : 5123,
            "count" : 9480,
            "type" : "SCALAR"
        }
    ],
    "bufferViews" : [
        {
            "buffer" : 0,
            "byteLength" : 8700,
            "byteOffset" : 0
        },
        {
            "buffer" : 0,
            "byteLength" : 8700,
            "byteOffset" : 8700
        },
        {
            "buffer" : 0,
            "byteLength" : 5800,
            "byteOffset" : 17400
        },
        {
            "buffer" : 0,
            "byteLength" : 7440,
            "byteOffset" : 23200
        },
        {
            "buffer" : 0,
            "byteLength" : 13824,
            "byteOffset" : 30640
        },
        {
            "buffer" : 0,
            "byteLength" : 13824,
            "byteOffset" : 44464
        },
        {
            "buffer" : 0,
            "byteLength" : 9216,
            "byteOffset" : 58288
        },
        {
            "buffer" : 0,
            "byteLength" : 6480,
            "byteOffset" : 67504
        },
        {
            "buffer" : 0,
            "byteLength" : 28416,
            "byteOffset" : 73984
        },
        {
            "buffer" : 0,
            "byteLength" : 28416,
            "byteOffset" : 102400
        },
        {
            "buffer" : 0,
            "byteLength" : 18944,
            "byteOffset" : 130816
        },
        {
            "buffer" : 0,
            "byteLength" : 7560,
            "byteOffset" : 149760
        },
        {
            "buffer" : 0,
            "byteLength" : 86124,
            "byteOffset" : 157320
        },
        {
            "buffer" : 0,
            "byteLength" : 86124,
            "byteOffset" : 243444
        },
        {
            "buffer" : 0,
            "byteLength" : 57416,
            "byteOffset" : 329568
        },
        {
            "buffer" : 0,
            "byteLength" : 30312,
            "byteOffset" : 386984
        },
        {
            "buffer" : 0,
            "byteLength" : 36876,
            "byteOffset" : 417296
        },
        {
            "buffer" : 0,
            "byteLength" : 36876,
            "byteOffset" : 454172
        },
        {
            "buffer" : 0,
            "byteLength" : 24584,
            "byteOffset" : 491048
        },
        {
            "buffer" : 0,
            "byteLength" : 31920,
            "byteOffset" : 515632
        },
        {
            "buffer" : 0,
            "byteLength" : 21144,
            "byteOffset" : 547552
        },
        {
            "buffer" : 0,
            "byteLength" : 21144,
            "byteOffset" : 568696
        },
        {
            "buffer" : 0,
            "byteLength" : 14096,
            "byteOffset" : 589840
        },
        {
            "buffer" : 0,
            "byteLength" : 18960,
            "byteOffset" : 603936
        }
    ],
    "buffers" : [
        {
            "byteLength" : 622896,
            "uri" : "data:application/octet-stream;base64,"
        }
    ]
}
