{
    "asset" : {
        "generator" : "Khronos glTF Blender I/O v1.3.48",
        "version" : "2.0"
    },
    "scene" : 0,
    "scenes" : [
        {
            "name" : "Scene",
            "nodes" : [
                3,
                10
            ]
        }
    ],
    "nodes" : [
        {
            "name" : "RootNode"
        },
        {
            "children" : [
                0
            ],
            "name" : "computerlow.FBX",
            "rotation" : [
                0.7071068286895752,
                0,
                0,
                0.7071068286895752
            ]
        },
        {
            "children" : [
                1
            ],
            "name" : "RootNode (model correction matrix)"
        },
        {
            "children" : [
                2
            ],
            "name" : "RootNode (gltf orientation matrix)",
            "rotation" : [
                -0.7071068286895752,
                0,
                0,
                0.7071068286895752
            ]
        },
        {
            "mesh" : 0,
            "name" : "LP_keyboard_0"
        },
        {
            "mesh" : 1,
            "name" : "LP_outline_0"
        },
        {
            "children" : [
                4,
                5
            ],
            "name" : "LP",
            "rotation" : [
                -0.7071068286895752,
                0,
                0,
                0.7071067094802856
            ],
            "scale" : [
                100,
                100,
                100
            ]
        },
        {
            "children" : [
                6
            ],
            "name" : "RootNode.001"
        },
        {
            "children" : [
                7
            ],
            "name" : "2417464e1e8d40bcafb5afb1124f02c9.fbx",
            "rotation" : [
                0.7071068286895752,
                0,
                0,
                0.7071068286895752
            ]
        },
        {
            "children" : [
                8
            ],
            "name" : "RootNode (model correction matrix).001"
        },
        {
            "children" : [
                9
            ],
            "name" : "RootNode (gltf orientation matrix).001",
            "rotation" : [
                -0.7071068286895752,
                0,
                0,
                0.7071068286895752
            ]
        }
    ],
    "materials" : [
        {
            "emissiveFactor" : [
                1,
                1,
                1
            ],
            "emissiveTexture" : {
                "index" : 0,
                "texCoord" : 0
            },
            "name" : "keyboard",
            "normalTexture" : {
                "index" : 1,
                "texCoord" : 0
            },
            "occlusionTexture" : {
                "index" : 2,
                "texCoord" : 0
            },
            "pbrMetallicRoughness" : {
                "baseColorTexture" : {
                    "index" : 3,
                    "texCoord" : 0
                },
                "metallicFactor" : 0,
                "roughnessFactor" : 0.8187881112098694
            }
        },
        {
            "emissiveFactor" : [
                0,
                0,
                0
            ],
            "name" : "outline",
            "pbrMetallicRoughness" : {
                "baseColorFactor" : [
                    0,
                    0,
                    0,
                    1
                ],
                "metallicFactor" : 0,
                "roughnessFactor" : 1
            }
        }
    ],
    "meshes" : [
        {
            "name" : "LP_keyboard_0",
            "primitives" : [
                {
                    "attributes" : {
                        "POSITION" : 0,
                        "NORMAL" : 1,
                        "TEXCOORD_0" : 2
                    },
                    "indices" : 3,
                    "material" : 0
                }
            ]
        },
        {
            "name" : "LP_outline_0",
            "primitives" : [
                {
                    "attributes" : {
                        "POSITION" : 4,
                        "NORMAL" : 5
                    },
                    "indices" : 6,
                    "material" : 1
                }
            ]
        }
    ],
    "textures" : [
        {
            "source" : 0
        },
        {
            "source" : 1
        },
        {
            "source" : 2
        },
        {
            "source" : 3
        }
    ],
    "images" : [
        {
            "bufferView" : 4,
            "mimeType" : "image/png",
            "name" : "keyboard_emissive"
        },
        {
            "bufferView" : 5,
            "mimeType" : "image/png",
            "name" : "keyboard_normal"
        },
        {
            "bufferView" : 6,
            "mimeType" : "image/png",
            "name" : "keyboard_metallicRoughness"
        },
        {
            "bufferView" : 7,
            "mimeType" : "image/png",
            "name" : "keyboard_baseColor"
        }
    ],
    "accessors" : [
        {
            "bufferView" : 0,
            "componentType" : 5126,
            "count" : 802,
            "max" : [
                1.2350000143051147,
                0.6325836777687073,
                0.17158901691436768
            ],
            "min" : [
                -1.2350000143051147,
                -0.6325836777687073,
                -0.17158901691436768
            ],
            "type" : "VEC3"
        },
        {
            "bufferView" : 1,
            "componentType" : 5126,
            "count" : 802,
            "type" : "VEC3"
        },
        {
            "bufferView" : 2,
            "componentType" : 5126,
            "count" : 802,
            "type" : "VEC2"
        },
        {
            "bufferView" : 3,
            "componentType" : 5123,
            "count" : 3480,
            "type" : "SCALAR"
        },
        {
            "bufferView" : 8,
            "componentType" : 5126,
            "count" : 3067,
            "max" : [
                1.2416820526123047,
                0.6392533779144287,
                0.17669984698295593
            ],
            "min" : [
                -1.2416824102401733,
                -0.6393240094184875,
                -0.1788174957036972
            ],
            "type" : "VEC3"
        },
        {
            "bufferView" : 9,
            "componentType" : 5126,
            "count" : 3067,
            "type" : "VEC3"
        },
        {
            "bufferView" : 10,
            "componentType" : 5123,
            "count" : 3480,
            "type" : "SCALAR"
        }
    ],
    "bufferViews" : [
        {
            "buffer" : 0,
            "byteLength" : 9624,
            "byteOffset" : 0
        },
        {
            "buffer" : 0,
            "byteLength" : 9624,
            "byteOffset" : 9624
        },
        {
            "buffer" : 0,
            "byteLength" : 6416,
            "byteOffset" : 19248
        },
        {
            "buffer" : 0,
            "byteLength" : 6960,
            "byteOffset" : 25664
        },
        {
            "buffer" : 0,
            "byteLength" : 20624,
            "byteOffset" : 32624
        },
        {
            "buffer" : 0,
            "byteLength" : 1296847,
            "byteOffset" : 53248
        },
        {
            "buffer" : 0,
            "byteLength" : 1170669,
            "byteOffset" : 1350096
        },
        {
            "buffer" : 0,
            "byteLength" : 71284,
            "byteOffset" : 2520768
        },
        {
            "buffer" : 0,
            "byteLength" : 36804,
            "byteOffset" : 2592052
        },
        {
            "buffer" : 0,
            "byteLength" : 36804,
            "byteOffset" : 2628856
        },
        {
            "buffer" : 0,
            "byteLength" : 6960,
            "byteOffset" : 2665660
        }
    ],
    "buffers" : [
        {
            "byteLength" : 2672620,
            "uri" : "data:application/octet-stream;base64,"
        }
    ]
}
