{
    "asset" : {
        "generator" : "Khronos glTF Blender I/O v1.3.48",
        "version" : "2.0"
    },
    "scene" : 0,
    "scenes" : [
        {
            "name" : "Scene",
            "nodes" : [
                3
            ]
        }
    ],
    "nodes" : [
        {
            "mesh" : 0,
            "name" : "Mesh_0.004",
            "scale" : [
                0.05000000074505806,
                0.05000000074505806,
                0.05000000074505806
            ],
            "translation" : [
                -4.409303188323975,
                -3.7346982955932617,
                6.676456451416016
            ]
        },
        {
            "children" : [
                0
            ],
            "name" : "4767acccb45f465ab87977d3c1950223.stl.cleaner.materialmerger.gle"
        },
        {
            "children" : [
                1
            ],
            "name" : "RootNode (model correction matrix)"
        },
        {
            "children" : [
                2
            ],
            "name" : "RootNode (gltf orientation matrix)",
            "rotation" : [
                -0.7071068286895752,
                0,
                0,
                0.7071068286895752
            ]
        }
    ],
    "materials" : [
        {
            "doubleSided" : true,
            "emissiveFactor" : [
                0,
                0,
                0
            ],
            "name" : "Scene_-_Root.001",
            "pbrMetallicRoughness" : {
                "metallicFactor" : 0,
                "roughnessFactor" : 0.6000000238418579
            }
        }
    ],
    "meshes" : [
        {
            "name" : "Mesh_0.004",
            "primitives" : [
                {
                    "attributes" : {
                        "POSITION" : 0,
                        "NORMAL" : 1,
                        "COLOR_0" : 2
                    },
                    "indices" : 3,
                    "material" : 0
                }
            ]
        }
    ],
    "accessors" : [
        {
            "bufferView" : 0,
            "componentType" : 5126,
            "count" : 5885,
            "max" : [
                149.3554229736328,
                120.67186737060547,
                -31.643280029296875
            ],
            "min" : [
                38.10342025756836,
                32.661869049072266,
                -135.66827392578125
            ],
            "type" : "VEC3"
        },
        {
            "bufferView" : 1,
            "componentType" : 5126,
            "count" : 5885,
            "type" : "VEC3"
        },
        {
            "bufferView" : 2,
            "componentType" : 5126,
            "count" : 5885,
            "type" : "VEC4"
        },
        {
            "bufferView" : 3,
            "componentType" : 5123,
            "count" : 10752,
            "type" : "SCALAR"
        }
    ],
    "bufferViews" : [
        {
            "buffer" : 0,
            "byteLength" : 70620,
            "byteOffset" : 0
        },
        {
            "buffer" : 0,
            "byteLength" : 70620,
            "byteOffset" : 70620
        },
        {
            "buffer" : 0,
            "byteLength" : 94160,
            "byteOffset" : 141240
        },
        {
            "buffer" : 0,
            "byteLength" : 21504,
            "byteOffset" : 235400
        }
    ],
    "buffers" : [
        {
            "byteLength" : 256904,
            "uri" : "data:application/octet-stream;base64,"
        }
    ]
}
