{
    "asset" : {
        "generator" : "Khronos glTF Blender I/O v1.3.48",
        "version" : "2.0"
    },
    "scene" : 0,
    "scenes" : [
        {
            "name" : "Scene",
            "nodes" : [
                5
            ]
        }
    ],
    "nodes" : [
        {
            "mesh" : 0,
            "name" : "Object_2"
        },
        {
            "mesh" : 1,
            "name" : "Object_3"
        },
        {
            "mesh" : 2,
            "name" : "Object_4"
        },
        {
            "mesh" : 3,
            "name" : "Object_5"
        },
        {
            "children" : [
                0,
                1,
                2,
                3
            ],
            "name" : "Mineways2Skfb.obj.minecraft.cleaner.materialmerger.gles"
        },
        {
            "children" : [
                4
            ],
            "name" : "Sketchfab_model",
            "rotation" : [
                -0.7071068286895752,
                0,
                0,
                0.7071068286895752
            ]
        }
    ],
    "materials" : [
        {
            "doubleSided" : true,
            "emissiveFactor" : [
                1,
                1,
                1
            ],
            "emissiveTexture" : {
                "index" : 0,
                "texCoord" : 0
            },
            "name" : "Colored_Terracotta",
            "pbrMetallicRoughness" : {
                "baseColorTexture" : {
                    "index" : 1,
                    "texCoord" : 0
                },
                "metallicFactor" : 0,
                "roughnessFactor" : 1
            }
        },
        {
            "doubleSided" : true,
            "emissiveFactor" : [
                1,
                1,
                1
            ],
            "emissiveTexture" : {
                "index" : 2,
                "texCoord" : 0
            },
            "name" : "Sea_Lantern",
            "pbrMetallicRoughness" : {
                "baseColorTexture" : {
                    "index" : 3,
                    "texCoord" : 0
                },
                "metallicFactor" : 0,
                "roughnessFactor" : 1
            }
        },
        {
            "alphaMode" : "BLEND",
            "emissiveFactor" : [
                1,
                1,
                1
            ],
            "emissiveTexture" : {
                "index" : 4,
                "texCoord" : 0
            },
            "name" : "Stationary_Water",
            "pbrMetallicRoughness" : {
                "baseColorTexture" : {
                    "index" : 5,
                    "texCoord" : 0
                },
                "metallicFactor" : 0,
                "roughnessFactor" : 1
            }
        },
        {
            "doubleSided" : true,
            "emissiveFactor" : [
                1,
                1,
                1
            ],
            "emissiveTexture" : {
                "index" : 6,
                "texCoord" : 0
            },
            "name" : "Wool",
            "pbrMetallicRoughness" : {
                "baseColorTexture" : {
                    "index" : 7,
                    "texCoord" : 0
                },
                "metallicFactor" : 0,
                "roughnessFactor" : 1
            }
        }
    ],
    "meshes" : [
        {
            "name" : "Object_0",
            "primitives" : [
                {
                    "attributes" : {
                        "POSITION" : 0,
                        "NORMAL" : 1,
                        "TEXCOORD_0" : 2
                    },
                    "indices" : 3,
                    "material" : 0
                }
            ]
        },
        {
            "name" : "Object_1",
            "primitives" : [
                {
                    "attributes" : {
                        "POSITION" : 4,
                        "NORMAL" : 5,
                        "TEXCOORD_0" : 6
                    },
                    "indices" : 7,
                    "material" : 1
                }
            ]
        },
        {
            "name" : "Object_2",
            "primitives" : [
                {
                    "attributes" : {
                        "POSITION" : 8,
                        "NORMAL" : 9,
                        "TEXCOORD_0" : 10
                    },
                    "indices" : 11,
                    "material" : 2
                }
            ]
        },
        {
            "name" : "Object_3",
            "primitives" : [
                {
                    "attributes" : {
                        "POSITION" : 12,
                        "NORMAL" : 13,
                        "TEXCOORD_0" : 14
                    },
                    "indices" : 15,
                    "material" : 3
                }
            ]
        }
    ],
    "textures" : [
        {
            "sampler" : 0,
            "source" : 0
        },
        {
            "sampler" : 1,
            "source" : 0
        },
        {
            "sampler" : 2,
            "source" : 0
        },
        {
            "sampler" : 3,
            "source" : 0
        },
        {
            "sampler" : 4,
            "source" : 0
        },
        {
            "sampler" : 5,
            "source" : 1
        },
        {
            "sampler" : 6,
            "source" : 0
        },
        {
            "sampler" : 7,
            "source" : 0
        }
    ],
    "images" : [
        {
            "bufferView" : 4,
            "mimeType" : "image/png",
            "name" : "Colored_Terracotta_baseColor"
        },
        {
            "bufferView" : 13,
            "mimeType" : "image/png",
            "name" : "Stationary_Water_baseColor"
        }
    ],
    "accessors" : [
        {
            "bufferView" : 0,
            "componentType" : 5126,
            "count" : 1994,
            "max" : [
                -0.33333298563957214,
                0.2777779996395111,
                0.9444440007209778
            ],
            "min" : [
                -1.2222199440002441,
                -0.6111109852790833,
                0.05555560067296028
            ],
            "type" : "VEC3"
        },
        {
            "bufferView" : 1,
            "componentType" : 5126,
            "count" : 1994,
            "type" : "VEC3"
        },
        {
            "bufferView" : 2,
            "componentType" : 5126,
            "count" : 1994,
            "type" : "VEC2"
        },
        {
            "bufferView" : 3,
            "componentType" : 5123,
            "count" : 2568,
            "type" : "SCALAR"
        },
        {
            "bufferView" : 5,
            "componentType" : 5126,
            "count" : 18,
            "max" : [
                -0.7222219705581665,
                -0.11111100018024445,
                0.11111100018024445
            ],
            "min" : [
                -0.8333330154418945,
                -0.2222220003604889,
                0.11111100018024445
            ],
            "type" : "VEC3"
        },
        {
            "bufferView" : 6,
            "componentType" : 5126,
            "count" : 18,
            "type" : "VEC3"
        },
        {
            "bufferView" : 7,
            "componentType" : 5126,
            "count" : 18,
            "type" : "VEC2"
        },
        {
            "bufferView" : 8,
            "componentType" : 5123,
            "count" : 24,
            "type" : "SCALAR"
        },
        {
            "bufferView" : 9,
            "componentType" : 5126,
            "count" : 36,
            "max" : [
                -0.38888901472091675,
                0.2222220003604889,
                0.9382719993591309
            ],
            "min" : [
                -1.1666699647903442,
                -0.5555559992790222,
                0.8888890147209167
            ],
            "type" : "VEC3"
        },
        {
            "bufferView" : 10,
            "componentType" : 5126,
            "count" : 36,
            "type" : "VEC3"
        },
        {
            "bufferView" : 11,
            "componentType" : 5126,
            "count" : 36,
            "type" : "VEC2"
        },
        {
            "bufferView" : 12,
            "componentType" : 5123,
            "count" : 48,
            "type" : "SCALAR"
        },
        {
            "bufferView" : 14,
            "componentType" : 5126,
            "count" : 12856,
            "max" : [
                -0.2777779996395111,
                0.33333298563957214,
                1
            ],
            "min" : [
                -1.2777800559997559,
                -0.6666669845581055,
                0
            ],
            "type" : "VEC3"
        },
        {
            "bufferView" : 15,
            "componentType" : 5126,
            "count" : 12856,
            "type" : "VEC3"
        },
        {
            "bufferView" : 16,
            "componentType" : 5126,
            "count" : 12856,
            "type" : "VEC2"
        },
        {
            "bufferView" : 17,
            "componentType" : 5123,
            "count" : 16248,
            "type" : "SCALAR"
        }
    ],
    "bufferViews" : [
        {
            "buffer" : 0,
            "byteLength" : 23928,
            "byteOffset" : 0
        },
        {
            "buffer" : 0,
            "byteLength" : 23928,
            "byteOffset" : 23928
        },
        {
            "buffer" : 0,
            "byteLength" : 15952,
            "byteOffset" : 47856
        },
        {
            "buffer" : 0,
            "byteLength" : 5136,
            "byteOffset" : 63808
        },
        {
            "buffer" : 0,
            "byteLength" : 238300,
            "byteOffset" : 68944
        },
        {
            "buffer" : 0,
            "byteLength" : 216,
            "byteOffset" : 307244
        },
        {
            "buffer" : 0,
            "byteLength" : 216,
            "byteOffset" : 307460
        },
        {
            "buffer" : 0,
            "byteLength" : 144,
            "byteOffset" : 307676
        },
        {
            "buffer" : 0,
            "byteLength" : 48,
            "byteOffset" : 307820
        },
        {
            "buffer" : 0,
            "byteLength" : 432,
            "byteOffset" : 307868
        },
        {
            "buffer" : 0,
            "byteLength" : 432,
            "byteOffset" : 308300
        },
        {
            "buffer" : 0,
            "byteLength" : 288,
            "byteOffset" : 308732
        },
        {
            "buffer" : 0,
            "byteLength" : 96,
            "byteOffset" : 309020
        },
        {
            "buffer" : 0,
            "byteLength" : 272058,
            "byteOffset" : 309116
        },
        {
            "buffer" : 0,
            "byteLength" : 154272,
            "byteOffset" : 581176
        },
        {
            "buffer" : 0,
            "byteLength" : 154272,
            "byteOffset" : 735448
        },
        {
            "buffer" : 0,
            "byteLength" : 102848,
            "byteOffset" : 889720
        },
        {
            "buffer" : 0,
            "byteLength" : 32496,
            "byteOffset" : 992568
        }
    ],
    "samplers" : [
        {
            "magFilter" : 9728,
            "minFilter" : 9984
        },
        {
            "magFilter" : 9728,
            "minFilter" : 9984
        },
        {
            "magFilter" : 9728,
            "minFilter" : 9984
        },
        {
            "magFilter" : 9728,
            "minFilter" : 9984
        },
        {
            "magFilter" : 9728,
            "minFilter" : 9984
        },
        {
            "magFilter" : 9728,
            "minFilter" : 9984
        },
        {
            "magFilter" : 9728,
            "minFilter" : 9984
        },
        {
            "magFilter" : 9728,
            "minFilter" : 9984
        }
    ],
    "buffers" : [
        {
            "byteLength" : 1025064,
            "uri" : "data:application/octet-stream;base64,"
        }
    ]
}
