{
    "asset" : {
        "generator" : "Khronos glTF Blender I/O v1.3.48",
        "version" : "2.0"
    },
    "scene" : 0,
    "scenes" : [
        {
            "name" : "Scene",
            "nodes" : [
                7
            ]
        }
    ],
    "nodes" : [
        {
            "name" : "Cube",
            "rotation" : [
                0.0017536245286464691,
                -0.04859396442770958,
                0.035347625613212585,
                0.9981914758682251
            ],
            "scale" : [
                0.050000421702861786,
                0.14999571442604065,
                0.00999741442501545
            ]
        },
        {
            "mesh" : 0,
            "name" : "Cube.001_0"
        },
        {
            "children" : [
                1
            ],
            "name" : "Cube.001",
            "scale" : [
                0.10000000149011612,
                0.10000000149011612,
                0.0024999999441206455
            ],
            "translation" : [
                0.022679999470710754,
                -0.25982001423835754,
                0
            ]
        },
        {
            "mesh" : 1,
            "name" : "Sphere_0",
            "scale" : [
                1.5753116607666016,
                1.5753117799758911,
                1.575311541557312
            ]
        },
        {
            "children" : [
                3
            ],
            "name" : "Sphere",
            "rotation" : [
                0,
                0,
                -0.15654146671295166,
                0.9876713752746582
            ],
            "scale" : [
                0.04551910609006882,
                0.027057157829403877,
                0.04050000011920929
            ],
            "translation" : [
                0.024529999122023582,
                -0.2545900046825409,
                -0.012729999609291553
            ]
        },
        {
            "children" : [
                0,
                2,
                4
            ],
            "name" : "Root"
        },
        {
            "children" : [
                5
            ],
            "name" : "RootNode (model correction matrix)"
        },
        {
            "children" : [
                6
            ],
            "name" : "RootNode (gltf orientation matrix)",
            "rotation" : [
                -0.7071068286895752,
                0,
                0,
                0.7071068286895752
            ],
            "scale" : [
                9.711221694946289,
                9.711221694946289,
                9.711221694946289
            ],
            "translation" : [
                0,
                0,
                -2.2716078758239746
            ]
        }
    ],
    "materials" : [
        {
            "doubleSided" : true,
            "emissiveFactor" : [
                0,
                0,
                0
            ],
            "name" : "Material.036",
            "pbrMetallicRoughness" : {
                "baseColorFactor" : [
                    0.02653655782341957,
                    0,
                    0.8000000715255737,
                    1
                ],
                "metallicFactor" : 0,
                "roughnessFactor" : 0.5
            }
        },
        {
            "doubleSided" : true,
            "emissiveFactor" : [
                0,
                0,
                0
            ],
            "name" : "Material.037",
            "pbrMetallicRoughness" : {
                "baseColorFactor" : [
                    0.8000000715255737,
                    0.7928552031517029,
                    0.4242028295993805,
                    1
                ],
                "metallicFactor" : 0,
                "roughnessFactor" : 0.5
            }
        }
    ],
    "meshes" : [
        {
            "name" : "Cube.001_0",
            "primitives" : [
                {
                    "attributes" : {
                        "POSITION" : 0,
                        "NORMAL" : 1
                    },
                    "indices" : 2,
                    "material" : 0
                }
            ]
        },
        {
            "name" : "Sphere_0",
            "primitives" : [
                {
                    "attributes" : {
                        "POSITION" : 3,
                        "NORMAL" : 4
                    },
                    "indices" : 5,
                    "material" : 1
                }
            ]
        }
    ],
    "accessors" : [
        {
            "bufferView" : 0,
            "componentType" : 5126,
            "count" : 56,
            "max" : [
                1,
                1,
                1
            ],
            "min" : [
                -1,
                -1,
                -1
            ],
            "type" : "VEC3"
        },
        {
            "bufferView" : 1,
            "componentType" : 5126,
            "count" : 56,
            "type" : "VEC3"
        },
        {
            "bufferView" : 2,
            "componentType" : 5123,
            "count" : 132,
            "type" : "SCALAR"
        },
        {
            "bufferView" : 3,
            "componentType" : 5126,
            "count" : 188,
            "max" : [
                0.812030017375946,
                0.8454499840736389,
                0.8164700269699097
            ],
            "min" : [
                -0.840399980545044,
                -0.9238799810409546,
                0.3826799988746643
            ],
            "type" : "VEC3"
        },
        {
            "bufferView" : 4,
            "componentType" : 5126,
            "count" : 188,
            "type" : "VEC3"
        },
        {
            "bufferView" : 5,
            "componentType" : 5123,
            "count" : 228,
            "type" : "SCALAR"
        }
    ],
    "bufferViews" : [
        {
            "buffer" : 0,
            "byteLength" : 672,
            "byteOffset" : 0
        },
        {
            "buffer" : 0,
            "byteLength" : 672,
            "byteOffset" : 672
        },
        {
            "buffer" : 0,
            "byteLength" : 264,
            "byteOffset" : 1344
        },
        {
            "buffer" : 0,
            "byteLength" : 2256,
            "byteOffset" : 1608
        },
        {
            "buffer" : 0,
            "byteLength" : 2256,
            "byteOffset" : 3864
        },
        {
            "buffer" : 0,
            "byteLength" : 456,
            "byteOffset" : 6120
        }
    ],
    "buffers" : [
        {
            "byteLength" : 6576,
            "uri" : "data:application/octet-stream;base64,"
        }
    ]
}
