{
    "asset" : {
        "generator" : "Khronos glTF Blender I/O v1.3.48",
        "version" : "2.0"
    },
    "scene" : 0,
    "scenes" : [
        {
            "name" : "Scene",
            "nodes" : [
                4
            ]
        }
    ],
    "nodes" : [
        {
            "mesh" : 0,
            "name" : "Mesh_0"
        },
        {
            "mesh" : 1,
            "name" : "Mesh_1"
        },
        {
            "children" : [
                0,
                1
            ],
            "name" : "d9e439f0407b42339e32264450bc8b82.obj.cleaner.materialmerger.gle"
        },
        {
            "children" : [
                2
            ],
            "name" : "RootNode (model correction matrix)",
            "rotation" : [
                -0.4998394548892975,
                0.4998394548892975,
                -0.5001605153083801,
                0.5001605153083801
            ],
            "translation" : [
                -3.800915241241455,
                -24.88299560546875,
                -26.847232818603516
            ]
        },
        {
            "children" : [
                3
            ],
            "name" : "RootNode (gltf orientation matrix)",
            "rotation" : [
                -0.7071068286895752,
                0,
                0,
                0.7071068286895752
            ],
            "scale" : [
                0.10000000149011612,
                0.10000000149011612,
                0.10000000149011612
            ]
        }
    ],
    "materials" : [
        {
            "doubleSided" : true,
            "emissiveFactor" : [
                0,
                0,
                0
            ],
            "name" : "color_15277357",
            "pbrMetallicRoughness" : {
                "baseColorFactor" : [
                    0.601850688457489,
                    0.12756869196891785,
                    0.12756869196891785,
                    1
                ],
                "metallicFactor" : 0,
                "roughnessFactor" : 0.4000000059604645
            }
        },
        {
            "doubleSided" : true,
            "emissiveFactor" : [
                0,
                0,
                0
            ],
            "name" : "color_6383466",
            "pbrMetallicRoughness" : {
                "baseColorFactor" : [
                    1,
                    1,
                    1,
                    1
                ],
                "metallicFactor" : 0,
                "roughnessFactor" : 0.6000000238418579
            }
        }
    ],
    "meshes" : [
        {
            "name" : "Mesh_0",
            "primitives" : [
                {
                    "attributes" : {
                        "POSITION" : 0,
                        "NORMAL" : 1
                    },
                    "indices" : 2,
                    "material" : 0
                }
            ]
        },
        {
            "name" : "Mesh_1",
            "primitives" : [
                {
                    "attributes" : {
                        "POSITION" : 3,
                        "NORMAL" : 4
                    },
                    "indices" : 5,
                    "material" : 1
                }
            ]
        }
    ],
    "accessors" : [
        {
            "bufferView" : 0,
            "componentType" : 5126,
            "count" : 8795,
            "max" : [
                -15.168000221252441,
                -34,
                14.5
            ],
            "min" : [
                -35.167999267578125,
                -58.37099838256836,
                -5.5
            ],
            "type" : "VEC3"
        },
        {
            "bufferView" : 1,
            "componentType" : 5126,
            "count" : 8795,
            "type" : "VEC3"
        },
        {
            "bufferView" : 2,
            "componentType" : 5123,
            "count" : 30987,
            "type" : "SCALAR"
        },
        {
            "bufferView" : 3,
            "componentType" : 5126,
            "count" : 1189,
            "max" : [
                -23,
                0,
                4.847599983215332
            ],
            "min" : [
                -27.332000732421875,
                -34,
                -0.20000000298023224
            ],
            "type" : "VEC3"
        },
        {
            "bufferView" : 4,
            "componentType" : 5126,
            "count" : 1189,
            "type" : "VEC3"
        },
        {
            "bufferView" : 5,
            "componentType" : 5123,
            "count" : 6636,
            "type" : "SCALAR"
        }
    ],
    "bufferViews" : [
        {
            "buffer" : 0,
            "byteLength" : 105540,
            "byteOffset" : 0
        },
        {
            "buffer" : 0,
            "byteLength" : 105540,
            "byteOffset" : 105540
        },
        {
            "buffer" : 0,
            "byteLength" : 61974,
            "byteOffset" : 211080
        },
        {
            "buffer" : 0,
            "byteLength" : 14268,
            "byteOffset" : 273056
        },
        {
            "buffer" : 0,
            "byteLength" : 14268,
            "byteOffset" : 287324
        },
        {
            "buffer" : 0,
            "byteLength" : 13272,
            "byteOffset" : 301592
        }
    ],
    "buffers" : [
        {
            "byteLength" : 314864,
            "uri" : "data:application/octet-stream;base64,"
        }
    ]
}
