{
    "asset" : {
        "generator" : "Khronos glTF Blender I/O v1.3.48",
        "version" : "2.0"
    },
    "scene" : 0,
    "scenes" : [
        {
            "name" : "Scene",
            "nodes" : [
                4
            ]
        }
    ],
    "nodes" : [
        {
            "mesh" : 0,
            "name" : "Object_2"
        },
        {
            "mesh" : 1,
            "name" : "Object_3"
        },
        {
            "mesh" : 2,
            "name" : "Object_4"
        },
        {
            "children" : [
                0,
                1,
                2
            ],
            "name" : "Air balloon.obj.cleaner.materialmerger.gles"
        },
        {
            "children" : [
                3
            ],
            "name" : "Sketchfab_model",
            "rotation" : [
                -0.7071068286895752,
                0,
                0,
                0.7071068286895752
            ]
        }
    ],
    "materials" : [
        {
            "doubleSided" : true,
            "emissiveFactor" : [
                0,
                0,
                0
            ],
            "name" : "lambert14SG",
            "pbrMetallicRoughness" : {
                "baseColorTexture" : {
                    "index" : 0,
                    "texCoord" : 0
                },
                "metallicFactor" : 0,
                "roughnessFactor" : 1
            }
        },
        {
            "doubleSided" : true,
            "emissiveFactor" : [
                0,
                0,
                0
            ],
            "name" : "lambert17SG",
            "pbrMetallicRoughness" : {
                "baseColorTexture" : {
                    "index" : 1,
                    "texCoord" : 0
                },
                "metallicFactor" : 0,
                "roughnessFactor" : 1
            }
        }
    ],
    "meshes" : [
        {
            "name" : "Object_0",
            "primitives" : [
                {
                    "attributes" : {
                        "POSITION" : 0,
                        "NORMAL" : 1,
                        "TEXCOORD_0" : 2
                    },
                    "indices" : 3,
                    "material" : 0
                }
            ]
        },
        {
            "name" : "Object_1",
            "primitives" : [
                {
                    "attributes" : {
                        "POSITION" : 4,
                        "NORMAL" : 5,
                        "TEXCOORD_0" : 6
                    },
                    "indices" : 7,
                    "material" : 1
                }
            ]
        },
        {
            "name" : "Object_2",
            "primitives" : [
                {
                    "attributes" : {
                        "POSITION" : 8,
                        "NORMAL" : 9,
                        "TEXCOORD_0" : 10
                    },
                    "indices" : 11,
                    "material" : 0
                }
            ]
        }
    ],
    "textures" : [
        {
            "source" : 0
        },
        {
            "source" : 1
        }
    ],
    "images" : [
        {
            "bufferView" : 4,
            "mimeType" : "image/png",
            "name" : "lambert14SG_baseColor"
        },
        {
            "bufferView" : 9,
            "mimeType" : "image/png",
            "name" : "lambert17SG_baseColor"
        }
    ],
    "accessors" : [
        {
            "bufferView" : 0,
            "componentType" : 5126,
            "count" : 385,
            "max" : [
                0.796422004699707,
                0.8243550062179565,
                1.9983270168304443
            ],
            "min" : [
                -1.5850330591201782,
                -0.8243650197982788,
                -0.43974098563194275
            ],
            "type" : "VEC3"
        },
        {
            "bufferView" : 1,
            "componentType" : 5126,
            "count" : 385,
            "type" : "VEC3"
        },
        {
            "bufferView" : 2,
            "componentType" : 5126,
            "count" : 385,
            "type" : "VEC2"
        },
        {
            "bufferView" : 3,
            "componentType" : 5123,
            "count" : 540,
            "type" : "SCALAR"
        },
        {
            "bufferView" : 5,
            "componentType" : 5126,
            "count" : 497,
            "max" : [
                2.2817249298095703,
                2.6827549934387207,
                8.394845962524414
            ],
            "min" : [
                -3.083785057067871,
                -2.6827549934387207,
                1.893913984298706
            ],
            "type" : "VEC3"
        },
        {
            "bufferView" : 6,
            "componentType" : 5126,
            "count" : 497,
            "type" : "VEC3"
        },
        {
            "bufferView" : 7,
            "componentType" : 5126,
            "count" : 497,
            "type" : "VEC2"
        },
        {
            "bufferView" : 8,
            "componentType" : 5123,
            "count" : 2220,
            "type" : "SCALAR"
        },
        {
            "bufferView" : 10,
            "componentType" : 5126,
            "count" : 1061,
            "max" : [
                0.8714219927787781,
                0.8993499875068665,
                1.239243984222412
            ],
            "min" : [
                -1.6600329875946045,
                -0.8993499875068665,
                -2.2152481079101562
            ],
            "type" : "VEC3"
        },
        {
            "bufferView" : 11,
            "componentType" : 5126,
            "count" : 1061,
            "type" : "VEC3"
        },
        {
            "bufferView" : 12,
            "componentType" : 5126,
            "count" : 1061,
            "type" : "VEC2"
        },
        {
            "bufferView" : 13,
            "componentType" : 5123,
            "count" : 2556,
            "type" : "SCALAR"
        }
    ],
    "bufferViews" : [
        {
            "buffer" : 0,
            "byteLength" : 4620,
            "byteOffset" : 0
        },
        {
            "buffer" : 0,
            "byteLength" : 4620,
            "byteOffset" : 4620
        },
        {
            "buffer" : 0,
            "byteLength" : 3080,
            "byteOffset" : 9240
        },
        {
            "buffer" : 0,
            "byteLength" : 1080,
            "byteOffset" : 12320
        },
        {
            "buffer" : 0,
            "byteLength" : 2768543,
            "byteOffset" : 13400
        },
        {
            "buffer" : 0,
            "byteLength" : 5964,
            "byteOffset" : 2781944
        },
        {
            "buffer" : 0,
            "byteLength" : 5964,
            "byteOffset" : 2787908
        },
        {
            "buffer" : 0,
            "byteLength" : 3976,
            "byteOffset" : 2793872
        },
        {
            "buffer" : 0,
            "byteLength" : 4440,
            "byteOffset" : 2797848
        },
        {
            "buffer" : 0,
            "byteLength" : 62320,
            "byteOffset" : 2802288
        },
        {
            "buffer" : 0,
            "byteLength" : 12732,
            "byteOffset" : 2864608
        },
        {
            "buffer" : 0,
            "byteLength" : 12732,
            "byteOffset" : 2877340
        },
        {
            "buffer" : 0,
            "byteLength" : 8488,
            "byteOffset" : 2890072
        },
        {
            "buffer" : 0,
            "byteLength" : 5112,
            "byteOffset" : 2898560
        }
    ],
    "buffers" : [
        {
            "byteLength" : 2903672,
            "uri" : "data:application/octet-stream;base64,"
        }
    ]
}
