{
    "asset" : {
        "generator" : "Khronos glTF Blender I/O v1.3.48",
        "version" : "2.0"
    },
    "scene" : 0,
    "scenes" : [
        {
            "name" : "Scene",
            "nodes" : [
                8
            ]
        }
    ],
    "nodes" : [
        {
            "mesh" : 0,
            "name" : "LAVAMESH_rampShader1_0"
        },
        {
            "children" : [
                0
            ],
            "name" : "LAVAMESH",
            "scale" : [
                1.2361466884613037,
                1.2361466884613037,
                1.2361466884613037
            ],
            "translation" : [
                0,
                1.6777186393737793,
                -0.11356198042631149
            ]
        },
        {
            "mesh" : 1,
            "name" : "pCylinder1_chrome1_0"
        },
        {
            "mesh" : 2,
            "name" : "pCylinder1_GLASS_0"
        },
        {
            "children" : [
                2,
                3
            ],
            "name" : "pCylinder1",
            "scale" : [
                0.6297628283500671,
                0.3462406098842621,
                0.6297628283500671
            ],
            "translation" : [
                0,
                3.0855448246002197,
                0
            ]
        },
        {
            "children" : [
                1,
                4
            ],
            "name" : "RootNode"
        },
        {
            "children" : [
                5
            ],
            "name" : "3af78b939e60426f97f1cd5a40c920a3.fbx",
            "rotation" : [
                0.7071068286895752,
                0,
                0,
                0.7071068286895752
            ]
        },
        {
            "children" : [
                6
            ],
            "name" : "RootNode (model correction matrix)"
        },
        {
            "children" : [
                7
            ],
            "name" : "RootNode (gltf orientation matrix)",
            "rotation" : [
                -0.7071068286895752,
                0,
                0,
                0.7071068286895752
            ],
            "scale" : [
                0.5,
                0.5,
                0.5
            ],
            "translation" : [
                0,
                1.2122856378555298,
                0
            ]
        }
    ],
    "materials" : [
        {
            "doubleSided" : true,
            "emissiveFactor" : [
                1,
                1,
                0
            ],
            "name" : "rampShader1.001",
            "pbrMetallicRoughness" : {
                "baseColorFactor" : [
                    0,
                    0.04003818333148956,
                    0.3100000023841858,
                    1
                ],
                "metallicFactor" : 0,
                "roughnessFactor" : 0.5400000214576721
            }
        },
        {
            "doubleSided" : true,
            "emissiveFactor" : [
                0,
                0,
                0
            ],
            "name" : "chrome1.001",
            "pbrMetallicRoughness" : {
                "baseColorFactor" : [
                    0,
                    0,
                    0,
                    1
                ],
                "metallicFactor" : 0.15000000596046448,
                "roughnessFactor" : 0.6000000238418579
            }
        },
        {
            "alphaMode" : "BLEND",
            "doubleSided" : true,
            "emissiveFactor" : [
                0.6267631649971008,
                0.0014548053732141852,
                0.021395497024059296
            ],
            "name" : "GLASS.001",
            "pbrMetallicRoughness" : {
                "baseColorFactor" : [
                    1,
                    0,
                    0.10963642597198486,
                    0.8500000238418579
                ],
                "metallicFactor" : 1,
                "roughnessFactor" : 0
            }
        }
    ],
    "meshes" : [
        {
            "name" : "LAVAMESH_rampShader1_0.001",
            "primitives" : [
                {
                    "attributes" : {
                        "POSITION" : 0,
                        "NORMAL" : 1,
                        "TEXCOORD_0" : 2
                    },
                    "indices" : 3,
                    "material" : 0
                }
            ]
        },
        {
            "name" : "pCylinder1_chrome1_0.001",
            "primitives" : [
                {
                    "attributes" : {
                        "POSITION" : 4,
                        "NORMAL" : 5,
                        "TEXCOORD_0" : 6
                    },
                    "indices" : 7,
                    "material" : 1
                }
            ]
        },
        {
            "name" : "pCylinder1_GLASS_0.001",
            "primitives" : [
                {
                    "attributes" : {
                        "POSITION" : 8,
                        "NORMAL" : 9,
                        "TEXCOORD_0" : 10
                    },
                    "indices" : 11,
                    "material" : 2
                }
            ]
        }
    ],
    "accessors" : [
        {
            "bufferView" : 0,
            "componentType" : 5126,
            "count" : 1879,
            "max" : [
                0.6927541494369507,
                2.2835805416107178,
                0.8181989789009094
            ],
            "min" : [
                -0.6819778680801392,
                -0.8803761005401611,
                -0.5851826071739197
            ],
            "type" : "VEC3"
        },
        {
            "bufferView" : 1,
            "componentType" : 5126,
            "count" : 1879,
            "type" : "VEC3"
        },
        {
            "bufferView" : 2,
            "componentType" : 5126,
            "count" : 1879,
            "type" : "VEC2"
        },
        {
            "bufferView" : 3,
            "componentType" : 5123,
            "count" : 9312,
            "type" : "SCALAR"
        },
        {
            "bufferView" : 4,
            "componentType" : 5126,
            "count" : 992,
            "max" : [
                2.3429465293884277,
                8.522562026977539,
                2.343015670776367
            ],
            "min" : [
                -2.342949390411377,
                -15.72507095336914,
                -2.3430211544036865
            ],
            "type" : "VEC3"
        },
        {
            "bufferView" : 5,
            "componentType" : 5126,
            "count" : 992,
            "type" : "VEC3"
        },
        {
            "bufferView" : 6,
            "componentType" : 5126,
            "count" : 992,
            "type" : "VEC2"
        },
        {
            "bufferView" : 7,
            "componentType" : 5123,
            "count" : 5040,
            "type" : "SCALAR"
        },
        {
            "bufferView" : 8,
            "componentType" : 5126,
            "count" : 917,
            "max" : [
                1.9520907402038574,
                5.161410808563232,
                1.9520907402038574
            ],
            "min" : [
                -1.9520905017852783,
                -9.190764427185059,
                -1.952091097831726
            ],
            "type" : "VEC3"
        },
        {
            "bufferView" : 9,
            "componentType" : 5126,
            "count" : 917,
            "type" : "VEC3"
        },
        {
            "bufferView" : 10,
            "componentType" : 5126,
            "count" : 917,
            "type" : "VEC2"
        },
        {
            "bufferView" : 11,
            "componentType" : 5123,
            "count" : 4800,
            "type" : "SCALAR"
        }
    ],
    "bufferViews" : [
        {
            "buffer" : 0,
            "byteLength" : 22548,
            "byteOffset" : 0
        },
        {
            "buffer" : 0,
            "byteLength" : 22548,
            "byteOffset" : 22548
        },
        {
            "buffer" : 0,
            "byteLength" : 15032,
            "byteOffset" : 45096
        },
        {
            "buffer" : 0,
            "byteLength" : 18624,
            "byteOffset" : 60128
        },
        {
            "buffer" : 0,
            "byteLength" : 11904,
            "byteOffset" : 78752
        },
        {
            "buffer" : 0,
            "byteLength" : 11904,
            "byteOffset" : 90656
        },
        {
            "buffer" : 0,
            "byteLength" : 7936,
            "byteOffset" : 102560
        },
        {
            "buffer" : 0,
            "byteLength" : 10080,
            "byteOffset" : 110496
        },
        {
            "buffer" : 0,
            "byteLength" : 11004,
            "byteOffset" : 120576
        },
        {
            "buffer" : 0,
            "byteLength" : 11004,
            "byteOffset" : 131580
        },
        {
            "buffer" : 0,
            "byteLength" : 7336,
            "byteOffset" : 142584
        },
        {
            "buffer" : 0,
            "byteLength" : 9600,
            "byteOffset" : 149920
        }
    ],
    "buffers" : [
        {
            "byteLength" : 159520,
            "uri" : "data:application/octet-stream;base64,"
        }
    ]
}
