{
    "asset" : {
        "generator" : "Khronos glTF Blender I/O v1.3.48",
        "version" : "2.0"
    },
    "scene" : 0,
    "scenes" : [
        {
            "name" : "Scene",
            "nodes" : [
                7
            ]
        }
    ],
    "nodes" : [
        {
            "mesh" : 0,
            "name" : "Mesh_0"
        },
        {
            "mesh" : 1,
            "name" : "Mesh_1"
        },
        {
            "mesh" : 2,
            "name" : "Mesh_2"
        },
        {
            "children" : [
                0,
                1,
                2
            ],
            "name" : "node-0_0"
        },
        {
            "children" : [
                3
            ],
            "name" : "GLTF_SceneRootNode",
            "rotation" : [
                0.7071068286895752,
                0,
                0,
                0.7071068286895752
            ]
        },
        {
            "children" : [
                4
            ],
            "name" : "root"
        },
        {
            "children" : [
                5
            ],
            "name" : "RootNode (model correction matrix)"
        },
        {
            "children" : [
                6
            ],
            "name" : "RootNode (gltf orientation matrix)",
            "rotation" : [
                -0.7071068286895752,
                0,
                0,
                0.7071068286895752
            ],
            "translation" : [
                0,
                1.4032739400863647,
                0
            ]
        }
    ],
    "materials" : [
        {
            "doubleSided" : true,
            "emissiveFactor" : [
                0,
                0,
                0
            ],
            "name" : "lambert4SG",
            "pbrMetallicRoughness" : {
                "baseColorFactor" : [
                    0.9900000095367432,
                    0.800000011920929,
                    0.009999999776482582,
                    1
                ],
                "metallicFactor" : 0,
                "roughnessFactor" : 0.9699479937553406
            }
        },
        {
            "doubleSided" : true,
            "emissiveFactor" : [
                0,
                0,
                0
            ],
            "name" : "lambert2SG",
            "pbrMetallicRoughness" : {
                "baseColorFactor" : [
                    0.33000001311302185,
                    0.33000001311302185,
                    0.33000001311302185,
                    1
                ],
                "metallicFactor" : 0,
                "roughnessFactor" : 0.9699479937553406
            }
        },
        {
            "doubleSided" : true,
            "emissiveFactor" : [
                0,
                0,
                0
            ],
            "name" : "lambert3SG",
            "pbrMetallicRoughness" : {
                "baseColorFactor" : [
                    1,
                    0.029999999329447746,
                    0.029999999329447746,
                    1
                ],
                "metallicFactor" : 0,
                "roughnessFactor" : 0.9699479937553406
            }
        }
    ],
    "meshes" : [
        {
            "name" : "Mesh_0",
            "primitives" : [
                {
                    "attributes" : {
                        "POSITION" : 0,
                        "NORMAL" : 1,
                        "TEXCOORD_0" : 2
                    },
                    "indices" : 3,
                    "material" : 0
                }
            ]
        },
        {
            "name" : "Mesh_1",
            "primitives" : [
                {
                    "attributes" : {
                        "POSITION" : 4,
                        "NORMAL" : 5,
                        "TEXCOORD_0" : 6
                    },
                    "indices" : 7,
                    "material" : 1
                }
            ]
        },
        {
            "name" : "Mesh_2",
            "primitives" : [
                {
                    "attributes" : {
                        "POSITION" : 8,
                        "NORMAL" : 9,
                        "TEXCOORD_0" : 10
                    },
                    "indices" : 11,
                    "material" : 2
                }
            ]
        }
    ],
    "accessors" : [
        {
            "bufferView" : 0,
            "componentType" : 5126,
            "count" : 3456,
            "max" : [
                0.7404170036315918,
                4.703888893127441,
                0.8277940154075623
            ],
            "min" : [
                -0.8516209721565247,
                1.2126410007476807,
                -0.8365409970283508
            ],
            "type" : "VEC3"
        },
        {
            "bufferView" : 1,
            "componentType" : 5126,
            "count" : 3456,
            "type" : "VEC3"
        },
        {
            "bufferView" : 2,
            "componentType" : 5126,
            "count" : 3456,
            "type" : "VEC2"
        },
        {
            "bufferView" : 3,
            "componentType" : 5123,
            "count" : 3456,
            "type" : "SCALAR"
        },
        {
            "bufferView" : 4,
            "componentType" : 5126,
            "count" : 208,
            "max" : [
                1,
                5.333878993988037,
                1
            ],
            "min" : [
                -1,
                -1.3892589807510376,
                -1
            ],
            "type" : "VEC3"
        },
        {
            "bufferView" : 5,
            "componentType" : 5126,
            "count" : 208,
            "type" : "VEC3"
        },
        {
            "bufferView" : 6,
            "componentType" : 5126,
            "count" : 208,
            "type" : "VEC2"
        },
        {
            "bufferView" : 7,
            "componentType" : 5123,
            "count" : 240,
            "type" : "SCALAR"
        },
        {
            "bufferView" : 8,
            "componentType" : 5126,
            "count" : 48,
            "max" : [
                1,
                4.612157821655273,
                1
            ],
            "min" : [
                -1,
                1.3892589807510376,
                -1
            ],
            "type" : "VEC3"
        },
        {
            "bufferView" : 9,
            "componentType" : 5126,
            "count" : 48,
            "type" : "VEC3"
        },
        {
            "bufferView" : 10,
            "componentType" : 5126,
            "count" : 48,
            "type" : "VEC2"
        },
        {
            "bufferView" : 11,
            "componentType" : 5123,
            "count" : 48,
            "type" : "SCALAR"
        }
    ],
    "bufferViews" : [
        {
            "buffer" : 0,
            "byteLength" : 41472,
            "byteOffset" : 0
        },
        {
            "buffer" : 0,
            "byteLength" : 41472,
            "byteOffset" : 41472
        },
        {
            "buffer" : 0,
            "byteLength" : 27648,
            "byteOffset" : 82944
        },
        {
            "buffer" : 0,
            "byteLength" : 6912,
            "byteOffset" : 110592
        },
        {
            "buffer" : 0,
            "byteLength" : 2496,
            "byteOffset" : 117504
        },
        {
            "buffer" : 0,
            "byteLength" : 2496,
            "byteOffset" : 120000
        },
        {
            "buffer" : 0,
            "byteLength" : 1664,
            "byteOffset" : 122496
        },
        {
            "buffer" : 0,
            "byteLength" : 480,
            "byteOffset" : 124160
        },
        {
            "buffer" : 0,
            "byteLength" : 576,
            "byteOffset" : 124640
        },
        {
            "buffer" : 0,
            "byteLength" : 576,
            "byteOffset" : 125216
        },
        {
            "buffer" : 0,
            "byteLength" : 384,
            "byteOffset" : 125792
        },
        {
            "buffer" : 0,
            "byteLength" : 96,
            "byteOffset" : 126176
        }
    ],
    "buffers" : [
        {
            "byteLength" : 126272,
            "uri" : "data:application/octet-stream;base64,"
        }
    ]
}
