{
    "asset" : {
        "generator" : "Khronos glTF Blender I/O v1.3.48",
        "version" : "2.0"
    },
    "scene" : 0,
    "scenes" : [
        {
            "name" : "Scene",
            "nodes" : [
                8
            ]
        }
    ],
    "nodes" : [
        {
            "mesh" : 0,
            "name" : "LAVAMESH_rampShader1_0"
        },
        {
            "children" : [
                0
            ],
            "name" : "LAVAMESH",
            "scale" : [
                1.2361466884613037,
                1.2361466884613037,
                1.2361466884613037
            ],
            "translation" : [
                0,
                1.6777186393737793,
                -0.11356198042631149
            ]
        },
        {
            "mesh" : 1,
            "name" : "pCylinder1_chrome1_0"
        },
        {
            "mesh" : 2,
            "name" : "pCylinder1_GLASS_0"
        },
        {
            "children" : [
                2,
                3
            ],
            "name" : "pCylinder1",
            "scale" : [
                0.6297628283500671,
                0.3462406098842621,
                0.6297628283500671
            ],
            "translation" : [
                0,
                3.0855448246002197,
                0
            ]
        },
        {
            "children" : [
                1,
                4
            ],
            "name" : "RootNode"
        },
        {
            "children" : [
                5
            ],
            "name" : "3af78b939e60426f97f1cd5a40c920a3.fbx",
            "rotation" : [
                0.7071068286895752,
                0,
                0,
                0.7071068286895752
            ]
        },
        {
            "children" : [
                6
            ],
            "name" : "RootNode (model correction matrix)"
        },
        {
            "children" : [
                7
            ],
            "name" : "RootNode (gltf orientation matrix)",
            "rotation" : [
                -0.7071068286895752,
                0,
                0,
                0.7071068286895752
            ],
            "scale" : [
                0.5,
                0.5,
                0.5
            ],
            "translation" : [
                0,
                1.286737322807312,
                0
            ]
        }
    ],
    "materials" : [
        {
            "doubleSided" : true,
            "emissiveFactor" : [
                0,
                1,
                0.04704539105296135
            ],
            "name" : "rampShader1",
            "pbrMetallicRoughness" : {}
        },
        {
            "name" : "chrome1",
            "pbrMetallicRoughness" : {}
        },
        {
            "alphaMode" : "BLEND",
            "doubleSided" : true,
            "emissiveFactor" : [
                0.010381351225078106,
                0,
                1
            ],
            "name" : "GLASS",
            "pbrMetallicRoughness" : {}
        }
    ],
    "meshes" : [
        {
            "name" : "LAVAMESH_rampShader1_0",
            "primitives" : [
                {
                    "attributes" : {
                        "POSITION" : 0,
                        "NORMAL" : 1
                    },
                    "indices" : 2,
                    "material" : 0
                }
            ]
        },
        {
            "name" : "pCylinder1_chrome1_0",
            "primitives" : [
                {
                    "attributes" : {
                        "POSITION" : 3,
                        "NORMAL" : 4
                    },
                    "indices" : 5,
                    "material" : 1
                }
            ]
        },
        {
            "name" : "pCylinder1_GLASS_0",
            "primitives" : [
                {
                    "attributes" : {
                        "POSITION" : 6,
                        "NORMAL" : 7
                    },
                    "indices" : 8,
                    "material" : 2
                }
            ]
        }
    ],
    "accessors" : [
        {
            "bufferView" : 0,
            "componentType" : 5126,
            "count" : 1879,
            "max" : [
                0.6927541494369507,
                2.2835805416107178,
                0.8181989789009094
            ],
            "min" : [
                -0.6819778680801392,
                -0.8803761005401611,
                -0.5851826071739197
            ],
            "type" : "VEC3"
        },
        {
            "bufferView" : 1,
            "componentType" : 5126,
            "count" : 1879,
            "type" : "VEC3"
        },
        {
            "bufferView" : 2,
            "componentType" : 5123,
            "count" : 9312,
            "type" : "SCALAR"
        },
        {
            "bufferView" : 3,
            "componentType" : 5126,
            "count" : 992,
            "max" : [
                2.3429465293884277,
                8.522562026977539,
                2.343015670776367
            ],
            "min" : [
                -2.342949390411377,
                -15.72507095336914,
                -2.3430211544036865
            ],
            "type" : "VEC3"
        },
        {
            "bufferView" : 4,
            "componentType" : 5126,
            "count" : 992,
            "type" : "VEC3"
        },
        {
            "bufferView" : 5,
            "componentType" : 5123,
            "count" : 5040,
            "type" : "SCALAR"
        },
        {
            "bufferView" : 6,
            "componentType" : 5126,
            "count" : 917,
            "max" : [
                1.9520907402038574,
                5.161410808563232,
                1.9520907402038574
            ],
            "min" : [
                -1.9520905017852783,
                -9.190764427185059,
                -1.952091097831726
            ],
            "type" : "VEC3"
        },
        {
            "bufferView" : 7,
            "componentType" : 5126,
            "count" : 917,
            "type" : "VEC3"
        },
        {
            "bufferView" : 8,
            "componentType" : 5123,
            "count" : 4800,
            "type" : "SCALAR"
        }
    ],
    "bufferViews" : [
        {
            "buffer" : 0,
            "byteLength" : 22548,
            "byteOffset" : 0
        },
        {
            "buffer" : 0,
            "byteLength" : 22548,
            "byteOffset" : 22548
        },
        {
            "buffer" : 0,
            "byteLength" : 18624,
            "byteOffset" : 45096
        },
        {
            "buffer" : 0,
            "byteLength" : 11904,
            "byteOffset" : 63720
        },
        {
            "buffer" : 0,
            "byteLength" : 11904,
            "byteOffset" : 75624
        },
        {
            "buffer" : 0,
            "byteLength" : 10080,
            "byteOffset" : 87528
        },
        {
            "buffer" : 0,
            "byteLength" : 11004,
            "byteOffset" : 97608
        },
        {
            "buffer" : 0,
            "byteLength" : 11004,
            "byteOffset" : 108612
        },
        {
            "buffer" : 0,
            "byteLength" : 9600,
            "byteOffset" : 119616
        }
    ],
    "buffers" : [
        {
            "byteLength" : 129216,
            "uri" : "data:application/octet-stream;base64,"
        }
    ]
}
