{
    "asset" : {
        "generator" : "Khronos glTF Blender I/O v1.3.48",
        "version" : "2.0"
    },
    "scene" : 0,
    "scenes" : [
        {
            "name" : "Scene",
            "nodes" : [
                8
            ]
        }
    ],
    "nodes" : [
        {
            "mesh" : 0,
            "name" : "Mesh_0"
        },
        {
            "mesh" : 1,
            "name" : "Mesh_1"
        },
        {
            "mesh" : 2,
            "name" : "Mesh_2"
        },
        {
            "mesh" : 3,
            "name" : "Mesh_3"
        },
        {
            "mesh" : 4,
            "name" : "Mesh_4"
        },
        {
            "children" : [
                0,
                1,
                2,
                3,
                4
            ],
            "name" : "Node_3"
        },
        {
            "children" : [
                5
            ],
            "name" : "tinker.obj.cleaner.materialmerger.gles",
            "translation" : [
                -104.81500244140625,
                -165,
                -93
            ]
        },
        {
            "children" : [
                6
            ],
            "name" : "RootNode (model correction matrix)",
            "rotation" : [
                -0.7071068286895752,
                0,
                0,
                0.7071068286895752
            ],
            "translation" : [
                0,
                -114.31907653808594,
                -110.78087615966797
            ]
        },
        {
            "children" : [
                7
            ],
            "name" : "RootNode (gltf orientation matrix)",
            "rotation" : [
                -0.7071068286895752,
                0,
                0,
                0.7071068286895752
            ],
            "scale" : [
                0.009999999776482582,
                0.009999999776482582,
                0.009999999776482582
            ]
        }
    ],
    "materials" : [
        {
            "doubleSided" : true,
            "emissiveFactor" : [
                0,
                0,
                0
            ],
            "name" : "color_15277357",
            "pbrMetallicRoughness" : {
                "baseColorFactor" : [
                    0.9137250185012817,
                    0.11372499912977219,
                    0.17647099494934082,
                    1
                ],
                "metallicFactor" : 0,
                "roughnessFactor" : 0.6000000238418579
            }
        },
        {
            "doubleSided" : true,
            "emissiveFactor" : [
                0,
                0,
                0
            ],
            "name" : "color_16448250",
            "pbrMetallicRoughness" : {
                "baseColorFactor" : [
                    0.9803919792175293,
                    0.9803919792175293,
                    0.9803919792175293,
                    1
                ],
                "metallicFactor" : 0,
                "roughnessFactor" : 0.6000000238418579
            }
        },
        {
            "doubleSided" : true,
            "emissiveFactor" : [
                0,
                0,
                0
            ],
            "name" : "color_16768282",
            "pbrMetallicRoughness" : {
                "baseColorFactor" : [
                    1,
                    0.8666669726371765,
                    0.10196100175380707,
                    1
                ],
                "metallicFactor" : 0,
                "roughnessFactor" : 0.6000000238418579
            }
        },
        {
            "doubleSided" : true,
            "emissiveFactor" : [
                0,
                0,
                0
            ],
            "name" : "color_3888547",
            "pbrMetallicRoughness" : {
                "baseColorFactor" : [
                    0.23137299716472626,
                    0.33333298563957214,
                    0.6392160058021545,
                    1
                ],
                "metallicFactor" : 0,
                "roughnessFactor" : 0.6000000238418579
            }
        },
        {
            "doubleSided" : true,
            "emissiveFactor" : [
                0,
                0,
                0
            ],
            "name" : "color_6383466",
            "pbrMetallicRoughness" : {
                "baseColorFactor" : [
                    0.3803919851779938,
                    0.4039219915866852,
                    0.4156860113143921,
                    1
                ],
                "metallicFactor" : 0,
                "roughnessFactor" : 0.6000000238418579
            }
        }
    ],
    "meshes" : [
        {
            "name" : "Mesh_0",
            "primitives" : [
                {
                    "attributes" : {
                        "POSITION" : 0,
                        "NORMAL" : 1
                    },
                    "indices" : 2,
                    "material" : 0
                }
            ]
        },
        {
            "name" : "Mesh_1",
            "primitives" : [
                {
                    "attributes" : {
                        "POSITION" : 3,
                        "NORMAL" : 4
                    },
                    "indices" : 5,
                    "material" : 1
                }
            ]
        },
        {
            "name" : "Mesh_2",
            "primitives" : [
                {
                    "attributes" : {
                        "POSITION" : 6,
                        "NORMAL" : 7
                    },
                    "indices" : 8,
                    "material" : 2
                }
            ]
        },
        {
            "name" : "Mesh_3",
            "primitives" : [
                {
                    "attributes" : {
                        "POSITION" : 9,
                        "NORMAL" : 10
                    },
                    "indices" : 11,
                    "material" : 3
                }
            ]
        },
        {
            "name" : "Mesh_4",
            "primitives" : [
                {
                    "attributes" : {
                        "POSITION" : 12,
                        "NORMAL" : 13
                    },
                    "indices" : 14,
                    "material" : 4
                }
            ]
        }
    ],
    "accessors" : [
        {
            "bufferView" : 0,
            "componentType" : 5126,
            "count" : 3015,
            "max" : [
                159.81500244140625,
                104.80000305175781,
                174.20578002929688
            ],
            "min" : [
                66.24099731445312,
                48,
                65.7229995727539
            ],
            "type" : "VEC3"
        },
        {
            "bufferView" : 1,
            "componentType" : 5126,
            "count" : 3015,
            "type" : "VEC3"
        },
        {
            "bufferView" : 2,
            "componentType" : 5123,
            "count" : 16215,
            "type" : "SCALAR"
        },
        {
            "bufferView" : 3,
            "componentType" : 5126,
            "count" : 23079,
            "max" : [
                158.56700134277344,
                104.9000015258789,
                189.53799438476562
            ],
            "min" : [
                0,
                0,
                0
            ],
            "type" : "VEC3"
        },
        {
            "bufferView" : 4,
            "componentType" : 5126,
            "count" : 23079,
            "type" : "VEC3"
        },
        {
            "bufferView" : 5,
            "componentType" : 5123,
            "count" : 94458,
            "type" : "SCALAR"
        },
        {
            "bufferView" : 6,
            "componentType" : 5126,
            "count" : 778,
            "max" : [
                118.07300567626953,
                49.608985900878906,
                112.14900207519531
            ],
            "min" : [
                108.07500457763672,
                39.80000305175781,
                102.1510009765625
            ],
            "type" : "VEC3"
        },
        {
            "bufferView" : 7,
            "componentType" : 5126,
            "count" : 778,
            "type" : "VEC3"
        },
        {
            "bufferView" : 8,
            "componentType" : 5123,
            "count" : 3921,
            "type" : "SCALAR"
        },
        {
            "bufferView" : 9,
            "componentType" : 5126,
            "count" : 1749,
            "max" : [
                128.11900329589844,
                85.4000015258789,
                130.78700256347656
            ],
            "min" : [
                106.19300079345703,
                65.19999694824219,
                71.875
            ],
            "type" : "VEC3"
        },
        {
            "bufferView" : 10,
            "componentType" : 5126,
            "count" : 1749,
            "type" : "VEC3"
        },
        {
            "bufferView" : 11,
            "componentType" : 5123,
            "count" : 8751,
            "type" : "SCALAR"
        },
        {
            "bufferView" : 12,
            "componentType" : 5126,
            "count" : 14287,
            "max" : [
                140.92947387695312,
                98.9000015258789,
                165.33599853515625
            ],
            "min" : [
                14.660003662109375,
                15.5,
                5.0240020751953125
            ],
            "type" : "VEC3"
        },
        {
            "bufferView" : 13,
            "componentType" : 5126,
            "count" : 14287,
            "type" : "VEC3"
        },
        {
            "bufferView" : 14,
            "componentType" : 5123,
            "count" : 69147,
            "type" : "SCALAR"
        }
    ],
    "bufferViews" : [
        {
            "buffer" : 0,
            "byteLength" : 36180,
            "byteOffset" : 0
        },
        {
            "buffer" : 0,
            "byteLength" : 36180,
            "byteOffset" : 36180
        },
        {
            "buffer" : 0,
            "byteLength" : 32430,
            "byteOffset" : 72360
        },
        {
            "buffer" : 0,
            "byteLength" : 276948,
            "byteOffset" : 104792
        },
        {
            "buffer" : 0,
            "byteLength" : 276948,
            "byteOffset" : 381740
        },
        {
            "buffer" : 0,
            "byteLength" : 188916,
            "byteOffset" : 658688
        },
        {
            "buffer" : 0,
            "byteLength" : 9336,
            "byteOffset" : 847604
        },
        {
            "buffer" : 0,
            "byteLength" : 9336,
            "byteOffset" : 856940
        },
        {
            "buffer" : 0,
            "byteLength" : 7842,
            "byteOffset" : 866276
        },
        {
            "buffer" : 0,
            "byteLength" : 20988,
            "byteOffset" : 874120
        },
        {
            "buffer" : 0,
            "byteLength" : 20988,
            "byteOffset" : 895108
        },
        {
            "buffer" : 0,
            "byteLength" : 17502,
            "byteOffset" : 916096
        },
        {
            "buffer" : 0,
            "byteLength" : 171444,
            "byteOffset" : 933600
        },
        {
            "buffer" : 0,
            "byteLength" : 171444,
            "byteOffset" : 1105044
        },
        {
            "buffer" : 0,
            "byteLength" : 138294,
            "byteOffset" : 1276488
        }
    ],
    "buffers" : [
        {
            "byteLength" : 1414784,
            "uri" : "data:application/octet-stream;base64,"
        }
    ]
}
