{
    "asset" : {
        "generator" : "Khronos glTF Blender I/O v1.3.48",
        "version" : "2.0"
    },
    "scene" : 0,
    "scenes" : [
        {
            "name" : "Scene",
            "nodes" : [
                4
            ]
        }
    ],
    "nodes" : [
        {
            "mesh" : 0,
            "name" : "MouseBody005__0"
        },
        {
            "children" : [
                0
            ],
            "name" : "MouseBody005",
            "rotation" : [
                0,
                -0.7071067094802856,
                0,
                0.7071068286895752
            ],
            "scale" : [
                0.9124410152435303,
                0.551921010017395,
                0.551921010017395
            ],
            "translation" : [
                0.10272502899169922,
                1.9422197341918945,
                0.5286564826965332
            ]
        },
        {
            "mesh" : 1,
            "name" : "ScrollWheel005__0"
        },
        {
            "children" : [
                2
            ],
            "name" : "Node_15",
            "translation" : [
                0,
                0,
                -0.29582419991493225
            ]
        },
        {
            "children" : [
                1,
                3
            ],
            "name" : "ScrollWheel005",
            "rotation" : [
                -0.5,
                0.5,
                -0.5,
                0.5
            ],
            "scale" : [
                1.8118549585342407,
                1.8118549585342407,
                1.0959609746932983
            ],
            "translation" : [
                -0.26044511795043945,
                2.5414862632751465,
                3.2931625843048096
            ]
        }
    ],
    "materials" : [
        {
            "doubleSided" : true,
            "emissiveFactor" : [
                0,
                0,
                0
            ],
            "name" : "Scene_-_Root",
            "pbrMetallicRoughness" : {
                "baseColorFactor" : [
                    0.804224967956543,
                    0.7728735208511353,
                    0.4567784368991852,
                    1
                ],
                "metallicFactor" : 0,
                "roughnessFactor" : 0.6000000238418579
            }
        }
    ],
    "meshes" : [
        {
            "name" : "MouseBody005__0",
            "primitives" : [
                {
                    "attributes" : {
                        "POSITION" : 0,
                        "NORMAL" : 1,
                        "TEXCOORD_0" : 2
                    },
                    "indices" : 3,
                    "material" : 0
                }
            ]
        },
        {
            "name" : "ScrollWheel005__0",
            "primitives" : [
                {
                    "attributes" : {
                        "POSITION" : 4,
                        "NORMAL" : 5,
                        "TEXCOORD_0" : 6
                    },
                    "indices" : 7,
                    "material" : 0
                }
            ]
        }
    ],
    "accessors" : [
        {
            "bufferView" : 0,
            "componentType" : 5126,
            "count" : 13017,
            "max" : [
                2.3249335289001465,
                5.191910266876221,
                2.1555416584014893
            ],
            "min" : [
                -3.483708381652832,
                -5.629384994506836,
                -1.4784960746765137
            ],
            "type" : "VEC3"
        },
        {
            "bufferView" : 1,
            "componentType" : 5126,
            "count" : 13017,
            "type" : "VEC3"
        },
        {
            "bufferView" : 2,
            "componentType" : 5126,
            "count" : 13017,
            "type" : "VEC2"
        },
        {
            "bufferView" : 3,
            "componentType" : 5123,
            "count" : 17268,
            "type" : "SCALAR"
        },
        {
            "bufferView" : 4,
            "componentType" : 5126,
            "count" : 952,
            "max" : [
                0.6215494275093079,
                0.6121066212654114,
                0.7218644618988037
            ],
            "min" : [
                -0.6215494275093079,
                -0.6121067404747009,
                -0.1302160918712616
            ],
            "type" : "VEC3"
        },
        {
            "bufferView" : 5,
            "componentType" : 5126,
            "count" : 952,
            "type" : "VEC3"
        },
        {
            "bufferView" : 6,
            "componentType" : 5126,
            "count" : 952,
            "type" : "VEC2"
        },
        {
            "bufferView" : 7,
            "componentType" : 5123,
            "count" : 960,
            "type" : "SCALAR"
        }
    ],
    "bufferViews" : [
        {
            "buffer" : 0,
            "byteLength" : 156204,
            "byteOffset" : 0
        },
        {
            "buffer" : 0,
            "byteLength" : 156204,
            "byteOffset" : 156204
        },
        {
            "buffer" : 0,
            "byteLength" : 104136,
            "byteOffset" : 312408
        },
        {
            "buffer" : 0,
            "byteLength" : 34536,
            "byteOffset" : 416544
        },
        {
            "buffer" : 0,
            "byteLength" : 11424,
            "byteOffset" : 451080
        },
        {
            "buffer" : 0,
            "byteLength" : 11424,
            "byteOffset" : 462504
        },
        {
            "buffer" : 0,
            "byteLength" : 7616,
            "byteOffset" : 473928
        },
        {
            "buffer" : 0,
            "byteLength" : 1920,
            "byteOffset" : 481544
        }
    ],
    "buffers" : [
        {
            "byteLength" : 483464,
            "uri" : "data:application/octet-stream;base64,"
        }
    ]
}
