{
    "asset" : {
        "generator" : "Khronos glTF Blender I/O v1.3.48",
        "version" : "2.0"
    },
    "scene" : 0,
    "scenes" : [
        {
            "name" : "Scene",
            "nodes" : [
                4
            ]
        }
    ],
    "nodes" : [
        {
            "mesh" : 0,
            "name" : "Plane.005_0",
            "rotation" : [
                0.32561179995536804,
                -0.5961997509002686,
                -0.16593387722969055,
                0.7148348093032837
            ],
            "translation" : [
                40.67511749267578,
                4.3527069091796875,
                25.71024513244629
            ]
        },
        {
            "children" : [
                0
            ],
            "name" : "Plane.005",
            "rotation" : [
                0,
                0,
                -0.053277719765901566,
                0.998579740524292
            ],
            "scale" : [
                0.13956229388713837,
                0.13956229388713837,
                0.13956999778747559
            ],
            "translation" : [
                -5.159709930419922,
                0.3919599950313568,
                -3.78262996673584
            ]
        },
        {
            "children" : [
                1
            ],
            "name" : "Root"
        },
        {
            "children" : [
                2
            ],
            "name" : "RootNode (model correction matrix)"
        },
        {
            "children" : [
                3
            ],
            "name" : "RootNode (gltf orientation matrix)",
            "rotation" : [
                -0.7071068286895752,
                0,
                0,
                0.7071068286895752
            ]
        }
    ],
    "materials" : [
        {
            "doubleSided" : true,
            "emissiveFactor" : [
                0,
                0,
                0
            ],
            "name" : "Scene_-_Root",
            "pbrMetallicRoughness" : {
                "metallicFactor" : 0,
                "roughnessFactor" : 0.6000000238418579
            }
        }
    ],
    "meshes" : [
        {
            "name" : "Plane.005_0",
            "primitives" : [
                {
                    "attributes" : {
                        "POSITION" : 0,
                        "NORMAL" : 1,
                        "TEXCOORD_0" : 2
                    },
                    "indices" : 3,
                    "material" : 0
                }
            ]
        }
    ],
    "accessors" : [
        {
            "bufferView" : 0,
            "componentType" : 5126,
            "count" : 25888,
            "max" : [
                58.56647872924805,
                28.387399673461914,
                2.673799991607666
            ],
            "min" : [
                -0.9790099859237671,
                -28.00395965576172,
                0
            ],
            "type" : "VEC3"
        },
        {
            "bufferView" : 1,
            "componentType" : 5126,
            "count" : 25888,
            "type" : "VEC3"
        },
        {
            "bufferView" : 2,
            "componentType" : 5126,
            "count" : 25888,
            "type" : "VEC2"
        },
        {
            "bufferView" : 3,
            "componentType" : 5123,
            "count" : 39168,
            "type" : "SCALAR"
        }
    ],
    "bufferViews" : [
        {
            "buffer" : 0,
            "byteLength" : 310656,
            "byteOffset" : 0
        },
        {
            "buffer" : 0,
            "byteLength" : 310656,
            "byteOffset" : 310656
        },
        {
            "buffer" : 0,
            "byteLength" : 207104,
            "byteOffset" : 621312
        },
        {
            "buffer" : 0,
            "byteLength" : 78336,
            "byteOffset" : 828416
        }
    ],
    "buffers" : [
        {
            "byteLength" : 906752,
            "uri" : "data:application/octet-stream;base64,"
        }
    ]
}
