{
    "asset" : {
        "generator" : "Khronos glTF Blender I/O v1.3.48",
        "version" : "2.0"
    },
    "scene" : 0,
    "scenes" : [
        {
            "name" : "Scene",
            "nodes" : [
                5
            ]
        }
    ],
    "nodes" : [
        {
            "mesh" : 0,
            "name" : "Mesh_0.001"
        },
        {
            "children" : [
                0
            ],
            "name" : "Rock Formation_0",
            "translation" : [
                0,
                1,
                0
            ]
        },
        {
            "children" : [
                1
            ],
            "name" : "GLTF_SceneRootNode",
            "rotation" : [
                0.7071068286895752,
                0,
                0,
                0.7071068286895752
            ]
        },
        {
            "children" : [
                2
            ],
            "name" : "root"
        },
        {
            "children" : [
                3
            ],
            "name" : "RootNode (model correction matrix)"
        },
        {
            "children" : [
                4
            ],
            "name" : "RootNode (gltf orientation matrix)",
            "rotation" : [
                -0.7071068286895752,
                0,
                0,
                0.7071068286895752
            ],
            "scale" : [
                0.30000001192092896,
                0.30000001192092896,
                0.30000001192092896
            ]
        }
    ],
    "materials" : [
        {
            "doubleSided" : true,
            "emissiveFactor" : [
                0,
                0,
                0
            ],
            "name" : "rock_clutter",
            "pbrMetallicRoughness" : {
                "baseColorTexture" : {
                    "index" : 0,
                    "texCoord" : 0
                },
                "metallicFactor" : 0,
                "roughnessFactor" : 0.5
            }
        }
    ],
    "meshes" : [
        {
            "name" : "Mesh_0.001",
            "primitives" : [
                {
                    "attributes" : {
                        "POSITION" : 0,
                        "NORMAL" : 1,
                        "TEXCOORD_0" : 2
                    },
                    "indices" : 3,
                    "material" : 0
                }
            ]
        }
    ],
    "textures" : [
        {
            "source" : 0
        }
    ],
    "images" : [
        {
            "bufferView" : 4,
            "mimeType" : "image/png",
            "name" : "rock_clutter_baseColor"
        }
    ],
    "accessors" : [
        {
            "bufferView" : 0,
            "componentType" : 5126,
            "count" : 370,
            "max" : [
                10.587846755981445,
                24.480348587036133,
                15.275936126708984
            ],
            "min" : [
                -39.96442794799805,
                -1.7844218015670776,
                -13.63454818725586
            ],
            "type" : "VEC3"
        },
        {
            "bufferView" : 1,
            "componentType" : 5126,
            "count" : 370,
            "type" : "VEC3"
        },
        {
            "bufferView" : 2,
            "componentType" : 5126,
            "count" : 370,
            "type" : "VEC2"
        },
        {
            "bufferView" : 3,
            "componentType" : 5123,
            "count" : 492,
            "type" : "SCALAR"
        }
    ],
    "bufferViews" : [
        {
            "buffer" : 0,
            "byteLength" : 4440,
            "byteOffset" : 0
        },
        {
            "buffer" : 0,
            "byteLength" : 4440,
            "byteOffset" : 4440
        },
        {
            "buffer" : 0,
            "byteLength" : 2960,
            "byteOffset" : 8880
        },
        {
            "buffer" : 0,
            "byteLength" : 984,
            "byteOffset" : 11840
        },
        {
            "buffer" : 0,
            "byteLength" : 730483,
            "byteOffset" : 12824
        }
    ],
    "buffers" : [
        {
            "byteLength" : 743308,
            "uri" : "data:application/octet-stream;base64,"
        }
    ]
}
