{
    "asset" : {
        "generator" : "Khronos glTF Blender I/O v1.3.48",
        "version" : "2.0"
    },
    "scene" : 0,
    "scenes" : [
        {
            "name" : "Scene",
            "nodes" : [
                6
            ]
        }
    ],
    "nodes" : [
        {
            "mesh" : 0,
            "name" : "Mesh_0.003"
        },
        {
            "mesh" : 1,
            "name" : "Mesh_1.001"
        },
        {
            "children" : [
                0,
                1
            ],
            "name" : "Cube.004_2"
        },
        {
            "children" : [
                2
            ],
            "name" : "GLTF_SceneRootNode",
            "rotation" : [
                0.7071068286895752,
                0,
                0,
                0.7071068286895752
            ]
        },
        {
            "children" : [
                3
            ],
            "name" : "root"
        },
        {
            "children" : [
                4
            ],
            "name" : "RootNode (model correction matrix)"
        },
        {
            "children" : [
                5
            ],
            "name" : "RootNode (gltf orientation matrix)",
            "rotation" : [
                -0.7071068286895752,
                0,
                0,
                0.7071068286895752
            ]
        }
    ],
    "materials" : [
        {
            "doubleSided" : true,
            "emissiveFactor" : [
                0,
                0,
                0
            ],
            "name" : "Black.Plastic",
            "pbrMetallicRoughness" : {
                "baseColorFactor" : [
                    0.004561270121484995,
                    0.004561270121484995,
                    0.004561270121484995,
                    1
                ],
                "metallicFactor" : 0,
                "roughnessFactor" : 0.5
            }
        },
        {
            "doubleSided" : true,
            "emissiveFactor" : [
                0,
                0,
                0
            ],
            "name" : "Shiny.Metal",
            "pbrMetallicRoughness" : {
                "baseColorFactor" : [
                    0.4064359962940216,
                    0.4064359962940216,
                    0.4064359962940216,
                    1
                ],
                "metallicFactor" : 0.800000011920929,
                "roughnessFactor" : 0.5
            }
        }
    ],
    "meshes" : [
        {
            "name" : "Mesh_0.003",
            "primitives" : [
                {
                    "attributes" : {
                        "POSITION" : 0,
                        "NORMAL" : 1,
                        "TEXCOORD_0" : 2
                    },
                    "indices" : 3,
                    "material" : 0
                }
            ]
        },
        {
            "name" : "Mesh_1.001",
            "primitives" : [
                {
                    "attributes" : {
                        "POSITION" : 4,
                        "NORMAL" : 5,
                        "TEXCOORD_0" : 6
                    },
                    "indices" : 7,
                    "material" : 1
                }
            ]
        }
    ],
    "accessors" : [
        {
            "bufferView" : 0,
            "componentType" : 5126,
            "count" : 4448,
            "max" : [
                0.3344346284866333,
                1.1106208562850952,
                0.3855712413787842
            ],
            "min" : [
                -0.4000113308429718,
                0.002440770622342825,
                -0.4551067352294922
            ],
            "type" : "VEC3"
        },
        {
            "bufferView" : 1,
            "componentType" : 5126,
            "count" : 4448,
            "type" : "VEC3"
        },
        {
            "bufferView" : 2,
            "componentType" : 5126,
            "count" : 4448,
            "type" : "VEC2"
        },
        {
            "bufferView" : 3,
            "componentType" : 5123,
            "count" : 6000,
            "type" : "SCALAR"
        },
        {
            "bufferView" : 4,
            "componentType" : 5126,
            "count" : 7420,
            "max" : [
                0.3391517102718353,
                0.6961463093757629,
                0.3872356116771698
            ],
            "min" : [
                -0.4026830792427063,
                0.0024407703895121813,
                -0.3789478838443756
            ],
            "type" : "VEC3"
        },
        {
            "bufferView" : 5,
            "componentType" : 5126,
            "count" : 7420,
            "type" : "VEC3"
        },
        {
            "bufferView" : 6,
            "componentType" : 5126,
            "count" : 7420,
            "type" : "VEC2"
        },
        {
            "bufferView" : 7,
            "componentType" : 5123,
            "count" : 9120,
            "type" : "SCALAR"
        }
    ],
    "bufferViews" : [
        {
            "buffer" : 0,
            "byteLength" : 53376,
            "byteOffset" : 0
        },
        {
            "buffer" : 0,
            "byteLength" : 53376,
            "byteOffset" : 53376
        },
        {
            "buffer" : 0,
            "byteLength" : 35584,
            "byteOffset" : 106752
        },
        {
            "buffer" : 0,
            "byteLength" : 12000,
            "byteOffset" : 142336
        },
        {
            "buffer" : 0,
            "byteLength" : 89040,
            "byteOffset" : 154336
        },
        {
            "buffer" : 0,
            "byteLength" : 89040,
            "byteOffset" : 243376
        },
        {
            "buffer" : 0,
            "byteLength" : 59360,
            "byteOffset" : 332416
        },
        {
            "buffer" : 0,
            "byteLength" : 18240,
            "byteOffset" : 391776
        }
    ],
    "buffers" : [
        {
            "byteLength" : 410016,
            "uri" : "data:application/octet-stream;base64,"
        }
    ]
}
