{
    "asset" : {
        "generator" : "Khronos glTF Blender I/O v1.3.48",
        "version" : "2.0"
    },
    "scene" : 0,
    "scenes" : [
        {
            "name" : "Scene",
            "nodes" : [
                7
            ]
        }
    ],
    "nodes" : [
        {
            "mesh" : 0,
            "name" : "Mesh_1.001"
        },
        {
            "children" : [
                0
            ],
            "name" : "Circle.001_1",
            "rotation" : [
                0.7071068286895752,
                0,
                0,
                0.7071068286895752
            ],
            "scale" : [
                2.5063695907592773,
                2.5063695907592773,
                2.5063695907592773
            ],
            "translation" : [
                0,
                0,
                0.5669801831245422
            ]
        },
        {
            "mesh" : 1,
            "name" : "Mesh_0.004"
        },
        {
            "children" : [
                2
            ],
            "name" : "Circle_0",
            "rotation" : [
                -0.002468145452439785,
                0.7071024775505066,
                -0.7071024775505066,
                -0.0024681449867784977
            ],
            "scale" : [
                2.5063695907592773,
                2.5063695907592773,
                2.5063695907592773
            ]
        },
        {
            "children" : [
                1,
                3
            ],
            "name" : "GLTF_SceneRootNode",
            "rotation" : [
                0.7071068286895752,
                0,
                0,
                0.7071068286895752
            ]
        },
        {
            "children" : [
                4
            ],
            "name" : "root"
        },
        {
            "children" : [
                5
            ],
            "name" : "RootNode (model correction matrix)",
            "translation" : [
                0,
                -0.005613209214061499,
                0
            ]
        },
        {
            "children" : [
                6
            ],
            "name" : "RootNode (gltf orientation matrix)",
            "rotation" : [
                -0.7071068286895752,
                0,
                0,
                0.7071068286895752
            ]
        }
    ],
    "materials" : [
        {
            "doubleSided" : true,
            "emissiveFactor" : [
                0,
                0,
                0
            ],
            "name" : "star",
            "pbrMetallicRoughness" : {
                "baseColorFactor" : [
                    0.03559879958629608,
                    0.03603069856762886,
                    0.800000011920929,
                    1
                ],
                "metallicFactor" : 0.5,
                "roughnessFactor" : 0
            }
        }
    ],
    "meshes" : [
        {
            "name" : "Mesh_1.001",
            "primitives" : [
                {
                    "attributes" : {
                        "POSITION" : 0,
                        "NORMAL" : 1,
                        "TEXCOORD_0" : 2
                    },
                    "indices" : 3,
                    "material" : 0
                }
            ]
        },
        {
            "name" : "Mesh_0.004",
            "primitives" : [
                {
                    "attributes" : {
                        "POSITION" : 4,
                        "NORMAL" : 5,
                        "TEXCOORD_0" : 6
                    },
                    "indices" : 7,
                    "material" : 0
                }
            ]
        }
    ],
    "accessors" : [
        {
            "bufferView" : 0,
            "componentType" : 5126,
            "count" : 81,
            "max" : [
                0.6436620354652405,
                4.1467661304750436e-08,
                0.5482680201530457
            ],
            "min" : [
                -0.6439951062202454,
                -0.1113351583480835,
                -0.6763667464256287
            ],
            "type" : "VEC3"
        },
        {
            "bufferView" : 1,
            "componentType" : 5126,
            "count" : 81,
            "type" : "VEC3"
        },
        {
            "bufferView" : 2,
            "componentType" : 5126,
            "count" : 81,
            "type" : "VEC2"
        },
        {
            "bufferView" : 3,
            "componentType" : 5123,
            "count" : 84,
            "type" : "SCALAR"
        },
        {
            "bufferView" : 4,
            "componentType" : 5126,
            "count" : 84,
            "max" : [
                0.6436620354652405,
                3.630120509745538e-12,
                0.5482680201530457
            ],
            "min" : [
                -0.6439951062202454,
                -0.1113351583480835,
                -0.6763667464256287
            ],
            "type" : "VEC3"
        },
        {
            "bufferView" : 5,
            "componentType" : 5126,
            "count" : 84,
            "type" : "VEC3"
        },
        {
            "bufferView" : 6,
            "componentType" : 5126,
            "count" : 84,
            "type" : "VEC2"
        },
        {
            "bufferView" : 7,
            "componentType" : 5123,
            "count" : 84,
            "type" : "SCALAR"
        }
    ],
    "bufferViews" : [
        {
            "buffer" : 0,
            "byteLength" : 972,
            "byteOffset" : 0
        },
        {
            "buffer" : 0,
            "byteLength" : 972,
            "byteOffset" : 972
        },
        {
            "buffer" : 0,
            "byteLength" : 648,
            "byteOffset" : 1944
        },
        {
            "buffer" : 0,
            "byteLength" : 168,
            "byteOffset" : 2592
        },
        {
            "buffer" : 0,
            "byteLength" : 1008,
            "byteOffset" : 2760
        },
        {
            "buffer" : 0,
            "byteLength" : 1008,
            "byteOffset" : 3768
        },
        {
            "buffer" : 0,
            "byteLength" : 672,
            "byteOffset" : 4776
        },
        {
            "buffer" : 0,
            "byteLength" : 168,
            "byteOffset" : 5448
        }
    ],
    "buffers" : [
        {
            "byteLength" : 5616,
            "uri" : "data:application/octet-stream;base64,"
        }
    ]
}
