{
    "asset" : {
        "generator" : "Khronos glTF Blender I/O v1.3.48",
        "version" : "2.0"
    },
    "scene" : 0,
    "scenes" : [
        {
            "name" : "Scene",
            "nodes" : [
                1,
                10
            ]
        }
    ],
    "nodes" : [
        {
            "name" : "Lamp.001"
        },
        {
            "children" : [
                0
            ],
            "name" : "Lamp",
            "rotation" : [
                0.16907447576522827,
                0.2721706032752991,
                0.7558797597885132,
                0.5709490180015564
            ],
            "scale" : [
                0.9999975562095642,
                0.9999958276748657,
                0.9999960660934448
            ],
            "translation" : [
                0.1685899943113327,
                -2.9631400108337402,
                5.903860092163086
            ]
        },
        {
            "mesh" : 0,
            "name" : "Cube.007_1",
            "scale" : [
                1.6072311401367188,
                1.6072311401367188,
                1.6072311401367188
            ],
            "translation" : [
                -0.031196236610412598,
                0.5078953504562378,
                -13.273962020874023
            ]
        },
        {
            "mesh" : 1,
            "name" : "Cube.007_2",
            "scale" : [
                1.6072311401367188,
                1.6072311401367188,
                1.6072311401367188
            ],
            "translation" : [
                -0.031196236610412598,
                0.5078953504562378,
                -13.273962020874023
            ]
        },
        {
            "mesh" : 2,
            "name" : "Cube.007_23"
        },
        {
            "mesh" : 3,
            "name" : "Cube.007_24"
        },
        {
            "mesh" : 4,
            "name" : "Cube.007_25"
        },
        {
            "mesh" : 5,
            "name" : "Cube.007_26"
        },
        {
            "mesh" : 6,
            "name" : "Cube.007_27"
        },
        {
            "mesh" : 7,
            "name" : "Cube.007_28"
        },
        {
            "children" : [
                2,
                3,
                4,
                5,
                6,
                7,
                8,
                9
            ],
            "name" : "Cube.007",
            "rotation" : [
                -0.7213519811630249,
                0,
                0,
                0.6925687193870544
            ],
            "scale" : [
                1.399999976158142,
                1,
                0.10000000149011612
            ],
            "translation" : [
                0,
                0,
                2
            ]
        }
    ],
    "materials" : [
        {
            "doubleSided" : true,
            "emissiveFactor" : [
                0,
                0,
                0
            ],
            "name" : "Material.029",
            "pbrMetallicRoughness" : {
                "baseColorFactor" : [
                    0.6328598260879517,
                    0.5588071346282959,
                    0.2604730725288391,
                    1
                ],
                "metallicFactor" : 0,
                "roughnessFactor" : 0.6000000238418579
            }
        },
        {
            "doubleSided" : true,
            "emissiveFactor" : [
                0,
                0,
                0
            ],
            "name" : "Material.028",
            "pbrMetallicRoughness" : {
                "baseColorFactor" : [
                    0.6104956865310669,
                    0,
                    0.011910228990018368,
                    1
                ],
                "metallicFactor" : 0,
                "roughnessFactor" : 0.6000000238418579
            }
        },
        {
            "doubleSided" : true,
            "emissiveFactor" : [
                0,
                0,
                0
            ],
            "name" : "Material.027",
            "pbrMetallicRoughness" : {
                "baseColorFactor" : [
                    0.5732455253601074,
                    0.4461837112903595,
                    0.2521559000015259,
                    1
                ],
                "metallicFactor" : 0,
                "roughnessFactor" : 0.6000000238418579
            }
        },
        {
            "doubleSided" : true,
            "emissiveFactor" : [
                0,
                0,
                0
            ],
            "name" : "Material.026",
            "pbrMetallicRoughness" : {
                "baseColorFactor" : [
                    0.8713672757148743,
                    0.8227859139442444,
                    0.6724432706832886,
                    1
                ],
                "metallicFactor" : 0,
                "roughnessFactor" : 0.6000000238418579
            }
        },
        {
            "doubleSided" : true,
            "emissiveFactor" : [
                0,
                0,
                0
            ],
            "name" : "Material.025",
            "pbrMetallicRoughness" : {
                "baseColorFactor" : [
                    0.8713672757148743,
                    0.8227859139442444,
                    0.6724432706832886,
                    1
                ],
                "metallicFactor" : 0,
                "roughnessFactor" : 0.6000000238418579
            }
        },
        {
            "doubleSided" : true,
            "emissiveFactor" : [
                0,
                0,
                0
            ],
            "name" : "Material.024",
            "pbrMetallicRoughness" : {
                "baseColorFactor" : [
                    0,
                    0.215860515832901,
                    0,
                    1
                ],
                "metallicFactor" : 0,
                "roughnessFactor" : 0.6000000238418579
            }
        },
        {
            "doubleSided" : true,
            "emissiveFactor" : [
                0,
                0,
                0
            ],
            "name" : "Material.023",
            "pbrMetallicRoughness" : {
                "baseColorFactor" : [
                    0,
                    0.215860515832901,
                    0,
                    1
                ],
                "metallicFactor" : 0,
                "roughnessFactor" : 0.6000000238418579
            }
        },
        {
            "doubleSided" : true,
            "emissiveFactor" : [
                0,
                0,
                0
            ],
            "name" : "Material.022",
            "pbrMetallicRoughness" : {
                "baseColorFactor" : [
                    0,
                    0.215860515832901,
                    0,
                    1
                ],
                "metallicFactor" : 0,
                "roughnessFactor" : 0.6000000238418579
            }
        }
    ],
    "meshes" : [
        {
            "name" : "Cube.007_1",
            "primitives" : [
                {
                    "attributes" : {
                        "POSITION" : 0,
                        "NORMAL" : 1,
                        "TEXCOORD_0" : 2
                    },
                    "indices" : 3,
                    "material" : 0
                }
            ]
        },
        {
            "name" : "Cube.007_2",
            "primitives" : [
                {
                    "attributes" : {
                        "POSITION" : 4,
                        "NORMAL" : 5,
                        "TEXCOORD_0" : 6
                    },
                    "indices" : 7,
                    "material" : 1
                }
            ]
        },
        {
            "name" : "Cube.007_23",
            "primitives" : [
                {
                    "attributes" : {
                        "POSITION" : 8,
                        "NORMAL" : 9,
                        "TEXCOORD_0" : 10
                    },
                    "indices" : 11,
                    "material" : 2
                }
            ]
        },
        {
            "name" : "Cube.007_24",
            "primitives" : [
                {
                    "attributes" : {
                        "POSITION" : 12,
                        "NORMAL" : 13,
                        "TEXCOORD_0" : 14
                    },
                    "indices" : 15,
                    "material" : 3
                }
            ]
        },
        {
            "name" : "Cube.007_25",
            "primitives" : [
                {
                    "attributes" : {
                        "POSITION" : 16,
                        "NORMAL" : 17,
                        "TEXCOORD_0" : 18
                    },
                    "indices" : 19,
                    "material" : 4
                }
            ]
        },
        {
            "name" : "Cube.007_26",
            "primitives" : [
                {
                    "attributes" : {
                        "POSITION" : 20,
                        "NORMAL" : 21,
                        "TEXCOORD_0" : 22
                    },
                    "indices" : 23,
                    "material" : 5
                }
            ]
        },
        {
            "name" : "Cube.007_27",
            "primitives" : [
                {
                    "attributes" : {
                        "POSITION" : 24,
                        "NORMAL" : 25,
                        "TEXCOORD_0" : 26
                    },
                    "indices" : 23,
                    "material" : 6
                }
            ]
        },
        {
            "name" : "Cube.007_28",
            "primitives" : [
                {
                    "attributes" : {
                        "POSITION" : 27,
                        "NORMAL" : 28,
                        "TEXCOORD_0" : 29
                    },
                    "indices" : 23,
                    "material" : 7
                }
            ]
        }
    ],
    "accessors" : [
        {
            "bufferView" : 0,
            "componentType" : 5126,
            "count" : 78,
            "max" : [
                0.8700900077819824,
                -0.4222699999809265,
                9.479999542236328
            ],
            "min" : [
                0.7272300124168396,
                -0.8222699761390686,
                8.520000457763672
            ],
            "type" : "VEC3"
        },
        {
            "bufferView" : 1,
            "componentType" : 5126,
            "count" : 78,
            "type" : "VEC3"
        },
        {
            "bufferView" : 2,
            "componentType" : 5126,
            "count" : 78,
            "type" : "VEC2"
        },
        {
            "bufferView" : 3,
            "componentType" : 5123,
            "count" : 108,
            "type" : "SCALAR"
        },
        {
            "bufferView" : 4,
            "componentType" : 5126,
            "count" : 84,
            "max" : [
                0.8105700016021729,
                -0.4822700023651123,
                9.720000267028809
            ],
            "min" : [
                0.7867599725723267,
                -0.6022700071334839,
                8.920000076293945
            ],
            "type" : "VEC3"
        },
        {
            "bufferView" : 5,
            "componentType" : 5126,
            "count" : 84,
            "type" : "VEC3"
        },
        {
            "bufferView" : 6,
            "componentType" : 5126,
            "count" : 84,
            "type" : "VEC2"
        },
        {
            "bufferView" : 7,
            "componentType" : 5123,
            "count" : 108,
            "type" : "SCALAR"
        },
        {
            "bufferView" : 8,
            "componentType" : 5126,
            "count" : 4738,
            "max" : [
                0.8799999952316284,
                0.31749001145362854,
                2.888240098953247
            ],
            "min" : [
                -0.9342899918556213,
                -0.8067499995231628,
                0.9524400234222412
            ],
            "type" : "VEC3"
        },
        {
            "bufferView" : 9,
            "componentType" : 5126,
            "count" : 4738,
            "type" : "VEC3"
        },
        {
            "bufferView" : 10,
            "componentType" : 5126,
            "count" : 4738,
            "type" : "VEC2"
        },
        {
            "bufferView" : 11,
            "componentType" : 5123,
            "count" : 4932,
            "type" : "SCALAR"
        },
        {
            "bufferView" : 12,
            "componentType" : 5126,
            "count" : 28,
            "max" : [
                -0.8378599882125854,
                0.2542000114917755,
                1.8995800018310547
            ],
            "min" : [
                -0.8735700249671936,
                0.17419999837875366,
                0.8995800018310547
            ],
            "type" : "VEC3"
        },
        {
            "bufferView" : 13,
            "componentType" : 5126,
            "count" : 28,
            "type" : "VEC3"
        },
        {
            "bufferView" : 14,
            "componentType" : 5126,
            "count" : 28,
            "type" : "VEC2"
        },
        {
            "bufferView" : 15,
            "componentType" : 5123,
            "count" : 36,
            "type" : "SCALAR"
        },
        {
            "bufferView" : 16,
            "componentType" : 5126,
            "count" : 24,
            "max" : [
                0.8264300227165222,
                0.2542000114917755,
                1.8995800018310547
            ],
            "min" : [
                0.7907099723815918,
                0.17419999837875366,
                0.8995800018310547
            ],
            "type" : "VEC3"
        },
        {
            "bufferView" : 17,
            "componentType" : 5126,
            "count" : 24,
            "type" : "VEC3"
        },
        {
            "bufferView" : 18,
            "componentType" : 5126,
            "count" : 24,
            "type" : "VEC2"
        },
        {
            "bufferView" : 19,
            "componentType" : 5123,
            "count" : 36,
            "type" : "SCALAR"
        },
        {
            "bufferView" : 20,
            "componentType" : 5126,
            "count" : 240,
            "max" : [
                0.7157099843025208,
                0.1537500023841858,
                2.7326300144195557
            ],
            "min" : [
                0.6728600263595581,
                0.09378000348806381,
                2.132920026779175
            ],
            "type" : "VEC3"
        },
        {
            "bufferView" : 21,
            "componentType" : 5126,
            "count" : 240,
            "type" : "VEC3"
        },
        {
            "bufferView" : 22,
            "componentType" : 5126,
            "count" : 240,
            "type" : "VEC2"
        },
        {
            "bufferView" : 23,
            "componentType" : 5123,
            "count" : 240,
            "type" : "SCALAR"
        },
        {
            "bufferView" : 24,
            "componentType" : 5126,
            "count" : 240,
            "max" : [
                0.6371399760246277,
                0.1537500023841858,
                2.7326300144195557
            ],
            "min" : [
                0.594290018081665,
                0.09378000348806381,
                2.132920026779175
            ],
            "type" : "VEC3"
        },
        {
            "bufferView" : 25,
            "componentType" : 5126,
            "count" : 240,
            "type" : "VEC3"
        },
        {
            "bufferView" : 26,
            "componentType" : 5126,
            "count" : 240,
            "type" : "VEC2"
        },
        {
            "bufferView" : 27,
            "componentType" : 5126,
            "count" : 240,
            "max" : [
                0.5585700273513794,
                0.1537500023841858,
                2.7326300144195557
            ],
            "min" : [
                0.5157099962234497,
                0.09378000348806381,
                2.132920026779175
            ],
            "type" : "VEC3"
        },
        {
            "bufferView" : 28,
            "componentType" : 5126,
            "count" : 240,
            "type" : "VEC3"
        },
        {
            "bufferView" : 29,
            "componentType" : 5126,
            "count" : 240,
            "type" : "VEC2"
        }
    ],
    "bufferViews" : [
        {
            "buffer" : 0,
            "byteLength" : 936,
            "byteOffset" : 0
        },
        {
            "buffer" : 0,
            "byteLength" : 936,
            "byteOffset" : 936
        },
        {
            "buffer" : 0,
            "byteLength" : 624,
            "byteOffset" : 1872
        },
        {
            "buffer" : 0,
            "byteLength" : 216,
            "byteOffset" : 2496
        },
        {
            "buffer" : 0,
            "byteLength" : 1008,
            "byteOffset" : 2712
        },
        {
            "buffer" : 0,
            "byteLength" : 1008,
            "byteOffset" : 3720
        },
        {
            "buffer" : 0,
            "byteLength" : 672,
            "byteOffset" : 4728
        },
        {
            "buffer" : 0,
            "byteLength" : 216,
            "byteOffset" : 5400
        },
        {
            "buffer" : 0,
            "byteLength" : 56856,
            "byteOffset" : 5616
        },
        {
            "buffer" : 0,
            "byteLength" : 56856,
            "byteOffset" : 62472
        },
        {
            "buffer" : 0,
            "byteLength" : 37904,
            "byteOffset" : 119328
        },
        {
            "buffer" : 0,
            "byteLength" : 9864,
            "byteOffset" : 157232
        },
        {
            "buffer" : 0,
            "byteLength" : 336,
            "byteOffset" : 167096
        },
        {
            "buffer" : 0,
            "byteLength" : 336,
            "byteOffset" : 167432
        },
        {
            "buffer" : 0,
            "byteLength" : 224,
            "byteOffset" : 167768
        },
        {
            "buffer" : 0,
            "byteLength" : 72,
            "byteOffset" : 167992
        },
        {
            "buffer" : 0,
            "byteLength" : 288,
            "byteOffset" : 168064
        },
        {
            "buffer" : 0,
            "byteLength" : 288,
            "byteOffset" : 168352
        },
        {
            "buffer" : 0,
            "byteLength" : 192,
            "byteOffset" : 168640
        },
        {
            "buffer" : 0,
            "byteLength" : 72,
            "byteOffset" : 168832
        },
        {
            "buffer" : 0,
            "byteLength" : 2880,
            "byteOffset" : 168904
        },
        {
            "buffer" : 0,
            "byteLength" : 2880,
            "byteOffset" : 171784
        },
        {
            "buffer" : 0,
            "byteLength" : 1920,
            "byteOffset" : 174664
        },
        {
            "buffer" : 0,
            "byteLength" : 480,
            "byteOffset" : 176584
        },
        {
            "buffer" : 0,
            "byteLength" : 2880,
            "byteOffset" : 177064
        },
        {
            "buffer" : 0,
            "byteLength" : 2880,
            "byteOffset" : 179944
        },
        {
            "buffer" : 0,
            "byteLength" : 1920,
            "byteOffset" : 182824
        },
        {
            "buffer" : 0,
            "byteLength" : 2880,
            "byteOffset" : 184744
        },
        {
            "buffer" : 0,
            "byteLength" : 2880,
            "byteOffset" : 187624
        },
        {
            "buffer" : 0,
            "byteLength" : 1920,
            "byteOffset" : 190504
        }
    ],
    "buffers" : [
        {
            "byteLength" : 192424,
            "uri" : "data:application/octet-stream;base64,"
        }
    ]
}
