{
    "asset" : {
        "generator" : "Khronos glTF Blender I/O v1.3.48",
        "version" : "2.0"
    },
    "scene" : 0,
    "scenes" : [
        {
            "name" : "Scene",
            "nodes" : [
                3
            ]
        }
    ],
    "nodes" : [
        {
            "mesh" : 0,
            "name" : "Mesh_0",
            "scale" : [
                0.20000000298023224,
                0.20000000298023224,
                0.20000000298023224
            ],
            "translation" : [
                4.826269149780273,
                0.008408971130847931,
                0.32446494698524475
            ]
        },
        {
            "children" : [
                0
            ],
            "name" : "d5b5d48ee07a4f8f859fec3814cfd3b4.stl.cleaner"
        },
        {
            "children" : [
                1
            ],
            "name" : "RootNode (model correction matrix)"
        },
        {
            "children" : [
                2
            ],
            "name" : "RootNode (gltf orientation matrix)",
            "rotation" : [
                -0.7071068286895752,
                0,
                0,
                0.7071068286895752
            ]
        }
    ],
    "materials" : [
        {
            "doubleSided" : true,
            "emissiveFactor" : [
                0,
                0,
                0
            ],
            "name" : "Scene_-_Root",
            "pbrMetallicRoughness" : {
                "metallicFactor" : 0,
                "roughnessFactor" : 0.6000000238418579
            }
        }
    ],
    "meshes" : [
        {
            "name" : "Mesh_0",
            "primitives" : [
                {
                    "attributes" : {
                        "POSITION" : 0,
                        "NORMAL" : 1
                    },
                    "indices" : 2,
                    "material" : 0
                }
            ]
        }
    ],
    "accessors" : [
        {
            "bufferView" : 0,
            "componentType" : 5126,
            "count" : 27491,
            "max" : [
                -19.442960739135742,
                3.0175390243530273,
                41.57945251464844
            ],
            "min" : [
                -32.67535400390625,
                -3.841191530227661,
                -0.00020369727280922234
            ],
            "type" : "VEC3"
        },
        {
            "bufferView" : 1,
            "componentType" : 5126,
            "count" : 27491,
            "type" : "VEC3"
        },
        {
            "bufferView" : 2,
            "componentType" : 5123,
            "count" : 141816,
            "type" : "SCALAR"
        }
    ],
    "bufferViews" : [
        {
            "buffer" : 0,
            "byteLength" : 329892,
            "byteOffset" : 0
        },
        {
            "buffer" : 0,
            "byteLength" : 329892,
            "byteOffset" : 329892
        },
        {
            "buffer" : 0,
            "byteLength" : 283632,
            "byteOffset" : 659784
        }
    ],
    "buffers" : [
        {
            "byteLength" : 943416,
            "uri" : "data:application/octet-stream;base64,"
        }
    ]
}
